<svg width="24" height="23" viewBox="0 0 24 23" fill="none" xmlns="http://www.w3.org/2000/svg">
<path d="M16.19 2.28613H7.81C4.17 2.28613 2 4.27709 2 7.61676V15.2962C2 18.645 4.17 20.636 7.81 20.636H16.18C19.82 20.636 21.99 18.645 21.99 15.3053V7.61676C22 4.27709 19.83 2.28613 16.19 2.28613ZM14.79 11.9473L11.26 15.1861C11.11 15.3237 10.92 15.3879 10.73 15.3879C10.54 15.3879 10.35 15.3237 10.2 15.1861C9.91 14.92 9.91 14.4796 10.2 14.2135L13.2 11.4611L10.2 8.70857C9.91 8.4425 9.91 8.00211 10.2 7.73603C10.49 7.46996 10.97 7.46996 11.26 7.73603L14.79 10.9748C15.09 11.2409 15.09 11.6812 14.79 11.9473Z" fill="#BBCBD0"/>
</svg>
