<svg width="82" height="82" viewBox="0 0 82 82" fill="none" xmlns="http://www.w3.org/2000/svg">
<path d="M81 37V61C81 77 77 81 61 81H21C5 81 1 77 1 61V21C1 5 5 1 21 1H27C33 1 34.32 2.76 36.6 5.8L42.6 13.8C44.12 15.8 45 17 49 17H61C77 17 81 21 81 37Z" stroke="#DEE4F3" stroke-width="2" stroke-miterlimit="10"/>
<path d="M25 1H61C69 1 73 5.01826 73 13.0548V18.6" stroke="#DEE4F3" stroke-width="2" stroke-miterlimit="10" stroke-linecap="round" stroke-linejoin="round"/>
<rect width="60" height="32" transform="translate(1 37)" fill="#DEE4F3"/>
<path d="M10.936 57.176C10.648 57.176 10.4027 57.0747 10.2 56.872C9.99733 56.6693 9.896 56.424 9.896 56.136C9.896 55.848 9.99733 55.6027 10.2 55.4C10.4027 55.1973 10.648 55.096 10.936 55.096C11.2347 55.096 11.48 55.1973 11.672 55.4C11.8747 55.6027 11.976 55.848 11.976 56.136C11.976 56.424 11.8747 56.6693 11.672 56.872C11.48 57.0747 11.2347 57.176 10.936 57.176ZM17.1745 57.208C16.3532 57.208 15.6332 57.0373 15.0145 56.696C14.4065 56.344 13.9585 55.848 13.6705 55.208L14.9345 54.472C15.2758 55.3253 16.0225 55.752 17.1745 55.752C17.8998 55.752 18.4598 55.5813 18.8545 55.24C19.2598 54.888 19.4625 54.3813 19.4625 53.72V45.8H20.9345V53.72C20.9345 54.84 20.5772 55.704 19.8625 56.312C19.1478 56.9093 18.2518 57.208 17.1745 57.208ZM23.1844 45.8H27.2484C28.2724 45.8 29.131 46.1467 29.8244 46.84C30.5177 47.5333 30.8644 48.3867 30.8644 49.4C30.8644 50.4133 30.5177 51.2667 29.8244 51.96C29.131 52.6533 28.2724 53 27.2484 53H24.6724V57H23.1844V45.8ZM24.6724 51.608H27.2484C27.8777 51.608 28.3897 51.4 28.7844 50.984C29.1897 50.5467 29.3924 50.0187 29.3924 49.4C29.3924 48.76 29.1897 48.232 28.7844 47.816C28.379 47.4 27.867 47.192 27.2484 47.192H24.6724V51.608ZM34.1099 52.04V55.592H39.3099V57H32.6219V45.8H39.2299V47.208H34.1099V50.648H38.8299V52.04H34.1099ZM46.2281 51.448H51.8281V52.12C51.8281 53.5813 51.3268 54.7973 50.3241 55.768C49.3215 56.728 47.9935 57.208 46.3401 57.208C44.6335 57.208 43.2201 56.648 42.1001 55.528C40.9908 54.3867 40.4361 53.0107 40.4361 51.4C40.4361 49.7893 40.9908 48.4187 42.1001 47.288C43.2201 46.1573 44.6228 45.592 46.3081 45.592C47.3321 45.592 48.2815 45.8427 49.1561 46.344C50.0415 46.8453 50.7081 47.496 51.1561 48.296L49.8761 49.048C49.5561 48.44 49.0708 47.9547 48.4201 47.592C47.7695 47.2187 47.0601 47.032 46.2921 47.032C45.0015 47.032 43.9508 47.4533 43.1401 48.296C42.3188 49.1387 41.9081 50.1733 41.9081 51.4C41.9081 52.6267 42.3188 53.6613 43.1401 54.504C43.9721 55.336 45.0441 55.752 46.3561 55.752C47.4548 55.752 48.3508 55.4853 49.0441 54.952C49.7481 54.408 50.1801 53.688 50.3401 52.792H46.2281V51.448Z" fill="#999999"/>
</svg>