<svg width="175" height="47" viewBox="0 0 175 47" fill="none" xmlns="http://www.w3.org/2000/svg">
<rect width="31.072" height="31.072" rx="3" transform="matrix(0.708033 -0.706179 0.708033 0.706179 131 24.9414)" fill="white"/>
<ellipse cx="153.049" cy="24.9417" rx="12.5995" ry="12.5667" fill="#181818"/>
<rect x="145.174" y="17.0898" width="15.8613" height="15.8198" rx="3" fill="white"/>
<ellipse cx="153.028" cy="24.9211" rx="5.49048" ry="5.47583" fill="#181818"/>
<rect width="3.55422" height="3.55422" rx="1" transform="matrix(0.708008 -0.706205 0.708008 0.706205 150.688 24.9414)" fill="white"/>
<path d="M3.96 34.2293V38.9453H1.746V26.3453C2.37 26.3453 3.048 26.3393 3.78 26.3273C4.512 26.3153 5.112 26.3093 5.58 26.3093C8.628 26.3093 10.152 27.6053 10.152 30.1973C10.152 31.1573 9.906 31.9493 9.414 32.5733C8.922 33.1733 8.358 33.5813 7.722 33.7973L11.664 38.9453H8.982L5.508 34.2293H3.96ZM5.472 28.3793C5.412 28.3793 5.316 28.3853 5.184 28.3973C5.052 28.3973 4.866 28.4033 4.626 28.4153C4.386 28.4153 4.164 28.4153 3.96 28.4153V32.1593H5.4C6.108 32.1593 6.684 31.9853 7.128 31.6373C7.584 31.2893 7.812 30.8153 7.812 30.2153C7.812 28.9913 7.032 28.3793 5.472 28.3793ZM18.6154 36.6773L19.2094 38.1353C18.4054 38.8073 17.3734 39.1433 16.1134 39.1433C14.8174 39.1433 13.7614 38.7533 12.9454 37.9733C12.1534 37.2053 11.7574 36.1793 11.7574 34.8953C11.7574 33.6953 12.1474 32.6873 12.9274 31.8713C13.7074 31.0553 14.7454 30.6473 16.0414 30.6473C17.1094 30.6473 18.0154 31.0013 18.7594 31.7093C19.5034 32.4173 19.8754 33.3173 19.8754 34.4093C19.8754 34.8893 19.8334 35.2613 19.7494 35.5253H13.8994C13.9834 36.1133 14.2414 36.5753 14.6734 36.9113C15.1174 37.2473 15.6694 37.4153 16.3294 37.4153C17.2294 37.4153 17.9914 37.1693 18.6154 36.6773ZM15.9514 32.3753C14.7754 32.3753 14.0674 32.9633 13.8274 34.1393H17.8054C17.8174 33.6233 17.6494 33.2033 17.3014 32.8793C16.9654 32.5433 16.5154 32.3753 15.9514 32.3753ZM29.2659 42.5453H27.1959V38.5313C26.5719 38.9393 25.9059 39.1433 25.1979 39.1433C23.9139 39.1433 22.8879 38.7593 22.1199 37.9913C21.3639 37.2113 20.9859 36.1793 20.9859 34.8953C20.9859 33.6833 21.4239 32.6753 22.2999 31.8713C23.1879 31.0553 24.2979 30.6473 25.6299 30.6473C27.0219 30.6473 28.2339 30.9713 29.2659 31.6193V42.5453ZM25.4679 37.2173C26.1639 37.2173 26.7399 36.9713 27.1959 36.4793V32.9873C26.6559 32.7233 26.1279 32.5913 25.6119 32.5913C24.8679 32.5913 24.2799 32.8193 23.8479 33.2753C23.4159 33.7193 23.1999 34.2893 23.1999 34.9853C23.1999 35.6333 23.4039 36.1673 23.8119 36.5873C24.2319 37.0073 24.7839 37.2173 25.4679 37.2173ZM36.8006 30.8453H38.8706V38.9453H36.8006V37.9553C36.1526 38.7473 35.2886 39.1433 34.2086 39.1433C33.3446 39.1433 32.6546 38.8553 32.1386 38.2793C31.6226 37.7033 31.3646 36.8753 31.3646 35.7953V30.8453H33.4346V35.3633C33.4346 36.5993 33.9506 37.2173 34.9826 37.2173C35.6906 37.2173 36.2966 36.8873 36.8006 36.2273V30.8453ZM47.5314 36.6773L48.1254 38.1353C47.3214 38.8073 46.2894 39.1433 45.0294 39.1433C43.7334 39.1433 42.6774 38.7533 41.8614 37.9733C41.0694 37.2053 40.6734 36.1793 40.6734 34.8953C40.6734 33.6953 41.0634 32.6873 41.8434 31.8713C42.6234 31.0553 43.6614 30.6473 44.9574 30.6473C46.0254 30.6473 46.9314 31.0013 47.6754 31.7093C48.4194 32.4173 48.7914 33.3173 48.7914 34.4093C48.7914 34.8893 48.7494 35.2613 48.6654 35.5253H42.8154C42.8994 36.1133 43.1574 36.5753 43.5894 36.9113C44.0334 37.2473 44.5854 37.4153 45.2454 37.4153C46.1454 37.4153 46.9074 37.1693 47.5314 36.6773ZM44.8674 32.3753C43.6914 32.3753 42.9834 32.9633 42.7434 34.1393H46.7214C46.7334 33.6233 46.5654 33.2033 46.2174 32.8793C45.8814 32.5433 45.4314 32.3753 44.8674 32.3753ZM50.1886 33.1133C50.1886 32.3573 50.4646 31.7573 51.0166 31.3133C51.5686 30.8693 52.2826 30.6473 53.1586 30.6473C54.4786 30.6473 55.5046 30.9893 56.2366 31.6733L55.4626 33.1493C54.8026 32.6333 54.0706 32.3753 53.2666 32.3753C52.9786 32.3753 52.7386 32.4473 52.5466 32.5913C52.3546 32.7233 52.2586 32.8853 52.2586 33.0773C52.2586 33.4733 52.7686 33.8033 53.7886 34.0673C54.1606 34.1513 54.4906 34.2473 54.7786 34.3553C55.0666 34.4513 55.3606 34.5953 55.6606 34.7873C55.9726 34.9673 56.2126 35.2073 56.3806 35.5073C56.5486 35.8073 56.6326 36.1553 56.6326 36.5513C56.6326 37.3433 56.3326 37.9733 55.7326 38.4413C55.1446 38.9093 54.3526 39.1433 53.3566 39.1433C52.6486 39.1433 51.9586 38.9933 51.2866 38.6933C50.6026 38.3813 50.1646 38.0693 49.9726 37.7573L50.9806 36.4073C51.2086 36.6833 51.5866 36.9173 52.1146 37.1093C52.6546 37.3133 53.1166 37.4153 53.5006 37.4153C53.9686 37.4633 54.2986 37.3133 54.4906 36.9653C54.6826 36.6053 54.5566 36.3113 54.1126 36.0833C53.9326 35.9873 53.6506 35.8853 53.2666 35.7773C52.8946 35.6693 52.5466 35.5613 52.2226 35.4533C51.9106 35.3333 51.5866 35.1833 51.2506 35.0033C50.9266 34.8233 50.6686 34.5773 50.4766 34.2653C50.2846 33.9413 50.1886 33.5573 50.1886 33.1133ZM58.2767 35.8673V28.5953H60.3467V30.8453H62.9567V32.7893H60.3467V35.7413C60.3467 36.7133 60.6707 37.1993 61.3187 37.1993C61.7267 37.1993 62.1407 37.0433 62.5607 36.7313L63.1907 38.3333C62.5307 38.8613 61.7327 39.1253 60.7967 39.1253C59.9207 39.1253 59.2787 38.8613 58.8707 38.3333C58.4747 37.7933 58.2767 36.9713 58.2767 35.8673ZM69.6494 38.9453H69.4964V27.0453H69.6834C70.1707 27.0453 70.624 27.0396 71.0434 27.0283C71.882 27.0056 72.3807 26.9943 72.5394 26.9943C73.684 26.9943 74.6927 27.153 75.5654 27.4703C76.4494 27.7763 77.152 28.207 77.6734 28.7623C78.1947 29.3063 78.58 29.924 78.8294 30.6153C79.09 31.2953 79.2204 32.032 79.2204 32.8253C79.2204 34.616 78.6254 36.0893 77.4354 37.2453C76.2567 38.4013 74.5794 38.9793 72.4034 38.9793C71.916 38.9793 71.4684 38.9736 71.0604 38.9623C70.6524 38.951 70.182 38.9453 69.6494 38.9453ZM72.5054 27.8783C72.256 27.8783 71.8877 27.8896 71.4004 27.9123C70.9244 27.9236 70.6014 27.9293 70.4314 27.9293V38.0613C70.8054 38.0613 71.1567 38.067 71.4854 38.0783C71.814 38.0783 72.052 38.084 72.1994 38.0953C72.3467 38.0953 72.426 38.0953 72.4374 38.0953C74.2847 38.0953 75.7127 37.608 76.7214 36.6333C77.73 35.6473 78.2344 34.378 78.2344 32.8253C78.2344 31.3633 77.7527 30.1733 76.7894 29.2553C75.8147 28.3373 74.3867 27.8783 72.5054 27.8783ZM87.4555 37.3303L87.7445 38.0103C87.0532 38.7356 86.1125 39.0983 84.9225 39.0983C83.6985 39.0983 82.7182 38.7356 81.9815 38.0103C81.2335 37.285 80.8595 36.3216 80.8595 35.1203C80.8595 33.9643 81.1995 33.0123 81.8795 32.2643C82.5709 31.5163 83.5229 31.1423 84.7355 31.1423C85.7215 31.1423 86.5489 31.4596 87.2175 32.0943C87.8749 32.7176 88.2035 33.5506 88.2035 34.5933C88.2035 34.8653 88.1865 35.1033 88.1525 35.3073H81.8455C81.8795 36.2253 82.1799 36.9506 82.7465 37.4833C83.3132 38.0046 84.0555 38.2653 84.9735 38.2653C86.0389 38.2653 86.8662 37.9536 87.4555 37.3303ZM84.6505 31.9753C83.8345 31.9753 83.1715 32.2133 82.6615 32.6893C82.1629 33.1653 81.8739 33.7943 81.7945 34.5763H87.3025C87.2912 33.7716 87.0475 33.137 86.5715 32.6723C86.0955 32.2076 85.4552 31.9753 84.6505 31.9753ZM94.2796 36.9393C94.2796 36.588 94.1323 36.3046 93.8376 36.0893C93.5543 35.874 93.2029 35.704 92.7836 35.5793C92.3756 35.4546 91.9619 35.3186 91.5426 35.1713C91.1233 35.0126 90.7663 34.769 90.4716 34.4403C90.1883 34.1003 90.0466 33.6753 90.0466 33.1653C90.0466 32.5533 90.2733 32.066 90.7266 31.7033C91.1799 31.3293 91.7749 31.1423 92.5116 31.1423C93.5656 31.1423 94.3646 31.4256 94.9086 31.9923L94.5346 32.6553C94.0133 32.168 93.3446 31.9243 92.5286 31.9243C92.0753 31.9243 91.7013 32.0433 91.4066 32.2813C91.1233 32.508 90.9816 32.797 90.9816 33.1483C90.9816 33.511 91.1233 33.8113 91.4066 34.0493C91.7013 34.276 92.0526 34.4573 92.4606 34.5933C92.8799 34.718 93.2993 34.854 93.7186 35.0013C94.1379 35.1486 94.4893 35.381 94.7726 35.6983C95.0673 36.0156 95.2146 36.418 95.2146 36.9053C95.2146 37.5966 94.9539 38.135 94.4326 38.5203C93.9226 38.9056 93.2653 39.0983 92.4606 39.0983C91.9619 39.0983 91.4406 38.985 90.8966 38.7583C90.3866 38.543 90.0353 38.288 89.8426 37.9933L90.3356 37.4153C90.5509 37.676 90.8739 37.8913 91.3046 38.0613C91.7466 38.2313 92.1659 38.3163 92.5626 38.3163C93.0613 38.3163 93.4693 38.1973 93.7866 37.9593C94.1153 37.71 94.2796 37.37 94.2796 36.9393ZM98.7331 38.9453H97.8491V31.2953H98.7331V38.9453ZM97.6961 28.3203C97.6961 28.1503 97.7584 28.0143 97.8831 27.9123C98.0077 27.8103 98.1551 27.7593 98.3251 27.7593C98.4724 27.7593 98.6027 27.816 98.7161 27.9293C98.8407 28.0313 98.9031 28.1616 98.9031 28.3203C98.9031 28.513 98.8464 28.666 98.7331 28.7793C98.6311 28.8926 98.4951 28.9493 98.3251 28.9493C98.1437 28.9493 97.9907 28.8926 97.8661 28.7793C97.7527 28.666 97.6961 28.513 97.6961 28.3203ZM100.752 40.0673C100.752 39.4893 100.956 39.002 101.364 38.6053C101.772 38.2086 102.35 37.931 103.098 37.7723C102.928 37.5683 102.843 37.3246 102.843 37.0413C102.843 36.758 102.939 36.503 103.132 36.2763C102.633 36.061 102.242 35.738 101.959 35.3073C101.675 34.8766 101.534 34.3893 101.534 33.8453C101.534 33.0633 101.811 32.4173 102.367 31.9073C102.922 31.3973 103.653 31.1423 104.56 31.1423C105.285 31.1423 105.925 31.335 106.481 31.7203H106.498L108.674 31.1423V31.9753L107.127 32.3663C107.433 32.831 107.586 33.324 107.586 33.8453C107.586 34.6046 107.302 35.2506 106.736 35.7833C106.169 36.2933 105.444 36.5483 104.56 36.5483C104.242 36.5483 103.987 36.5256 103.795 36.4803C103.693 36.6276 103.642 36.8146 103.642 37.0413C103.642 37.302 103.715 37.506 103.863 37.6533C104.293 37.6306 104.531 37.6193 104.577 37.6193C105.744 37.6193 106.673 37.8346 107.365 38.2653C108.056 38.696 108.402 39.2966 108.402 40.0673C108.402 40.8266 108.056 41.416 107.365 41.8353C106.673 42.266 105.744 42.4813 104.577 42.4813C103.398 42.4813 102.463 42.2716 101.772 41.8523C101.092 41.433 100.752 40.838 100.752 40.0673ZM101.653 40.0673C101.653 40.566 101.913 40.957 102.435 41.2403C102.967 41.535 103.681 41.6823 104.577 41.6823C105.461 41.6823 106.169 41.535 106.702 41.2403C107.234 40.9456 107.501 40.5546 107.501 40.0673C107.501 39.5686 107.234 39.172 106.702 38.8773C106.18 38.5713 105.472 38.4183 104.577 38.4183C103.693 38.4183 102.984 38.5656 102.452 38.8603C101.919 39.155 101.653 39.5573 101.653 40.0673ZM103.03 32.4853C102.633 32.848 102.435 33.3013 102.435 33.8453C102.435 34.3893 102.633 34.8426 103.03 35.2053C103.426 35.568 103.936 35.7493 104.56 35.7493C105.183 35.7493 105.693 35.568 106.09 35.2053C106.486 34.8426 106.685 34.3893 106.685 33.8453C106.685 33.3013 106.481 32.848 106.073 32.4853C105.676 32.1226 105.172 31.9413 104.56 31.9413C103.959 31.9413 103.449 32.1226 103.03 32.4853ZM111.075 38.9453H110.191V31.2953H111.075V32.3663C111.392 32.015 111.8 31.726 112.299 31.4993C112.809 31.2726 113.319 31.1593 113.829 31.1593C114.894 31.1593 115.693 31.437 116.226 31.9923C116.758 32.5476 117.025 33.409 117.025 34.5763V38.9453H116.141V34.7463C116.141 32.9103 115.302 31.9923 113.625 31.9923C113.137 31.9923 112.661 32.1056 112.197 32.3323C111.732 32.5476 111.358 32.8253 111.075 33.1653V38.9453Z" fill="#181818"/>
<path d="M19.2 4.8H23.264C24.288 4.8 25.1467 5.14667 25.84 5.84C26.5333 6.53333 26.88 7.38667 26.88 8.4C26.88 9.41333 26.5333 10.2667 25.84 10.96C25.1467 11.6533 24.288 12 23.264 12H20.688V16H19.2V4.8ZM20.688 10.608H23.264C23.8933 10.608 24.4053 10.4 24.8 9.984C25.2053 9.54667 25.408 9.01867 25.408 8.4C25.408 7.76 25.2053 7.232 24.8 6.816C24.3947 6.4 23.8827 6.192 23.264 6.192H20.688V10.608ZM34.5081 9.376V8H35.9001V16H34.5081V14.624C33.8255 15.68 32.8175 16.208 31.4841 16.208C30.3535 16.208 29.3988 15.8027 28.6201 14.992C27.8308 14.1707 27.4361 13.1733 27.4361 12C27.4361 10.8373 27.8308 9.84533 28.6201 9.024C29.4095 8.20267 30.3641 7.792 31.4841 7.792C32.8175 7.792 33.8255 8.32 34.5081 9.376ZM31.6601 14.864C32.4708 14.864 33.1481 14.592 33.6921 14.048C34.2361 13.4827 34.5081 12.8 34.5081 12C34.5081 11.1893 34.2361 10.512 33.6921 9.968C33.1481 9.41333 32.4708 9.136 31.6601 9.136C30.8601 9.136 30.1881 9.41333 29.6441 9.968C29.1001 10.512 28.8281 11.1893 28.8281 12C28.8281 12.8 29.1001 13.4827 29.6441 14.048C30.1881 14.592 30.8601 14.864 31.6601 14.864ZM42.3291 11.904C43.2145 12.2773 43.6571 12.912 43.6571 13.808C43.6571 14.5013 43.3851 15.0773 42.8411 15.536C42.2971 15.984 41.5451 16.208 40.5851 16.208C38.9851 16.208 37.9131 15.568 37.3691 14.288L38.5371 13.6C38.8358 14.4747 39.5238 14.912 40.6011 14.912C41.1238 14.912 41.5345 14.8 41.8331 14.576C42.1318 14.352 42.2811 14.0533 42.2811 13.68C42.2811 13.36 42.1585 13.0987 41.9131 12.896C41.6785 12.6933 41.3585 12.592 40.9531 12.592H39.7851V11.328H40.6491C41.0545 11.328 41.3691 11.232 41.5931 11.04C41.8171 10.8373 41.9291 10.5653 41.9291 10.224C41.9291 9.872 41.7958 9.59467 41.5291 9.392C41.2625 9.17867 40.9051 9.072 40.4571 9.072C39.5611 9.072 38.9531 9.45067 38.6331 10.208L37.4971 9.552C38.0625 8.37867 39.0491 7.792 40.4571 7.792C41.3105 7.792 41.9931 8.016 42.5051 8.464C43.0278 8.90133 43.2891 9.45067 43.2891 10.112C43.2891 10.9227 42.9691 11.52 42.3291 11.904ZM49.5814 7.792C50.7014 7.792 51.656 8.20267 52.4454 9.024C53.2347 9.84533 53.6294 10.8373 53.6294 12C53.6294 13.1733 53.2347 14.1707 52.4454 14.992C51.6667 15.8027 50.712 16.208 49.5814 16.208C48.2587 16.208 47.2507 15.68 46.5574 14.624V19.2H45.1654V8H46.5574V9.376C47.2507 8.32 48.2587 7.792 49.5814 7.792ZM49.4054 14.864C50.2054 14.864 50.8774 14.592 51.4214 14.048C51.9654 13.4827 52.2374 12.8 52.2374 12C52.2374 11.1893 51.9654 10.512 51.4214 9.968C50.8774 9.41333 50.2054 9.136 49.4054 9.136C48.5947 9.136 47.9174 9.41333 47.3734 9.968C46.8294 10.512 46.5574 11.1893 46.5574 12C46.5574 12.8 46.8294 13.4827 47.3734 14.048C47.9174 14.592 48.5947 14.864 49.4054 14.864ZM61.9144 9.376V8H63.3064V16H61.9144V14.624C61.2317 15.68 60.2237 16.208 58.8904 16.208C57.7597 16.208 56.805 15.8027 56.0264 14.992C55.237 14.1707 54.8424 13.1733 54.8424 12C54.8424 10.8373 55.237 9.84533 56.0264 9.024C56.8157 8.20267 57.7704 7.792 58.8904 7.792C60.2237 7.792 61.2317 8.32 61.9144 9.376ZM59.0664 14.864C59.877 14.864 60.5544 14.592 61.0984 14.048C61.6424 13.4827 61.9144 12.8 61.9144 12C61.9144 11.1893 61.6424 10.512 61.0984 9.968C60.5544 9.41333 59.877 9.136 59.0664 9.136C58.2664 9.136 57.5944 9.41333 57.0504 9.968C56.5064 10.512 56.2344 11.1893 56.2344 12C56.2344 12.8 56.5064 13.4827 57.0504 14.048C57.5944 14.592 58.2664 14.864 59.0664 14.864ZM69.0474 16.208C67.8634 16.208 66.8874 15.8187 66.1194 15.04C65.3514 14.2507 64.9674 13.248 64.9674 12.032C64.9674 10.656 65.1647 9.60533 65.5594 8.88C65.9647 8.144 66.786 7.47733 68.0234 6.88C68.0874 6.848 68.162 6.81067 68.2474 6.768C68.3434 6.72533 68.4554 6.67733 68.5834 6.624C68.722 6.56 68.8394 6.50667 68.9354 6.464L69.7994 6.08C70.6527 5.65333 71.106 5.14133 71.1594 4.544L72.2794 5.184C72.2047 5.55733 72.082 5.856 71.9114 6.08C71.9007 6.10133 71.8687 6.14933 71.8154 6.224C71.762 6.288 71.7247 6.336 71.7034 6.368C71.682 6.38933 71.6447 6.42667 71.5914 6.48C71.5487 6.52267 71.5007 6.56533 71.4474 6.608C71.4047 6.65067 71.346 6.69333 71.2714 6.736C70.8767 6.98133 70.594 7.14133 70.4234 7.216C70.3594 7.248 70.29 7.28 70.2154 7.312C70.1514 7.344 70.098 7.37067 70.0554 7.392C70.0127 7.41333 69.9807 7.42933 69.9594 7.44L69.4314 7.664L68.9194 7.872C68.2047 8.18133 67.6767 8.496 67.3354 8.816C66.994 9.136 66.7487 9.54133 66.5994 10.032C66.93 9.62667 67.346 9.31733 67.8474 9.104C68.3594 8.89067 68.882 8.784 69.4154 8.784C70.4287 8.784 71.2767 9.12533 71.9594 9.808C72.6634 10.5013 73.0154 11.3813 73.0154 12.448C73.0154 13.536 72.642 14.4373 71.8954 15.152C71.138 15.856 70.1887 16.208 69.0474 16.208ZM71.6234 12.448C71.6234 11.7333 71.3887 11.152 70.9194 10.704C70.4607 10.2453 69.8527 10.016 69.0954 10.016C68.4234 10.016 67.8047 10.2347 67.2394 10.672C66.6954 11.1093 66.4234 11.6747 66.4234 12.368C66.4234 13.0933 66.674 13.6907 67.1754 14.16C67.6767 14.6293 68.3007 14.864 69.0474 14.864C69.8047 14.864 70.418 14.6347 70.8874 14.176C71.378 13.7173 71.6234 13.1413 71.6234 12.448ZM81.2455 14.992C80.4348 15.8027 79.4375 16.208 78.2535 16.208C77.0695 16.208 76.0722 15.8027 75.2615 14.992C74.4508 14.1813 74.0455 13.184 74.0455 12C74.0455 10.816 74.4508 9.81867 75.2615 9.008C76.0722 8.19733 77.0695 7.792 78.2535 7.792C79.4375 7.792 80.4348 8.19733 81.2455 9.008C82.0668 9.82933 82.4775 10.8267 82.4775 12C82.4775 13.1733 82.0668 14.1707 81.2455 14.992ZM78.2535 14.848C79.0535 14.848 79.7255 14.576 80.2695 14.032C80.8135 13.488 81.0855 12.8107 81.0855 12C81.0855 11.1893 80.8135 10.512 80.2695 9.968C79.7255 9.424 79.0535 9.152 78.2535 9.152C77.4642 9.152 76.7975 9.424 76.2535 9.968C75.7095 10.512 75.4375 11.1893 75.4375 12C75.4375 12.8107 75.7095 13.488 76.2535 14.032C76.7975 14.576 77.4642 14.848 78.2535 14.848ZM82.91 8H89.758V9.344H87.038V16H85.646V9.344H82.91V8ZM97.2894 9.376V8H98.6814V16H97.2894V14.624C96.6067 15.68 95.5987 16.208 94.2654 16.208C93.1347 16.208 92.18 15.8027 91.4014 14.992C90.612 14.1707 90.2174 13.1733 90.2174 12C90.2174 10.8373 90.612 9.84533 91.4014 9.024C92.1907 8.20267 93.1454 7.792 94.2654 7.792C95.5987 7.792 96.6067 8.32 97.2894 9.376ZM94.4414 14.864C95.252 14.864 95.9294 14.592 96.4734 14.048C97.0174 13.4827 97.2894 12.8 97.2894 12C97.2894 11.1893 97.0174 10.512 96.4734 9.968C95.9294 9.41333 95.252 9.136 94.4414 9.136C93.6414 9.136 92.9694 9.41333 92.4254 9.968C91.8814 10.512 91.6094 11.1893 91.6094 12C91.6094 12.8 91.8814 13.4827 92.4254 14.048C92.9694 14.592 93.6414 14.864 94.4414 14.864ZM106.326 11.328V8H107.718V16H106.326V12.656H102.182V16H100.79V8H102.182V11.328H106.326ZM116.589 14.992C115.779 15.8027 114.781 16.208 113.597 16.208C112.413 16.208 111.416 15.8027 110.605 14.992C109.795 14.1813 109.389 13.184 109.389 12C109.389 10.816 109.795 9.81867 110.605 9.008C111.416 8.19733 112.413 7.792 113.597 7.792C114.781 7.792 115.779 8.19733 116.589 9.008C117.411 9.82933 117.821 10.8267 117.821 12C117.821 13.1733 117.411 14.1707 116.589 14.992ZM113.597 14.848C114.397 14.848 115.069 14.576 115.613 14.032C116.157 13.488 116.429 12.8107 116.429 12C116.429 11.1893 116.157 10.512 115.613 9.968C115.069 9.424 114.397 9.152 113.597 9.152C112.808 9.152 112.141 9.424 111.597 9.968C111.053 10.512 110.781 11.1893 110.781 12C110.781 12.8107 111.053 13.488 111.597 14.032C112.141 14.576 112.808 14.848 113.597 14.848Z" fill="#999999"/>
</svg>