<svg width="1920" height="670" viewBox="0 0 1920 670" fill="none" xmlns="http://www.w3.org/2000/svg">
	<path d="M1970.05 157.138C1830.23 158.039 1728.96 129.929 1661.9 103.735C1594.09 77.2444 1544.15 45.9796 1457.02 34.6076C1360.9 21.9092 1300.19 36.9563 1276.32 44.4934C1243.23 54.9561 1245.78 59.8115 1192.1 82.0024C1088.98 124.634 1067.51 111.742 1021.94 137.944C946.392 181.38 974.843 234.39 897.897 302.972C842.178 352.654 746.505 396.815 654.903 380.44C568.643 365.014 553.981 308.069 464.663 307.855C427.975 307.767 398.385 317.978 339.226 338.398C263.399 364.466 213.443 392.688 193.333 402.835C133.761 432.929 35.44 457.351 -131.66 423.597M1972.66 175.754C1837.51 177.835 1734.15 153.44 1661.16 126.605C1601.83 104.435 1555.76 78.4199 1494.06 62.4252C1480.56 58.9414 1466.39 55.6692 1451.2 53.107C1355.52 36.9929 1294.56 46.5718 1269.18 51.3603C1235.15 57.7627 1235.48 61.5355 1182.86 83.1395C1145.77 98.3428 1119.21 107.512 1098.56 113.818C1063.46 124.526 1045.6 126.65 1018.67 143.587C1008.61 149.862 999.313 157.275 990.955 165.679C952.293 204.528 958.065 248.835 892.937 302.228C836.247 348.707 740.852 388.591 650.792 372.248C643.656 370.948 636.591 369.289 629.623 367.276C559.306 346.931 539.867 301.741 461.353 301.45C453.078 301.407 444.809 301.918 436.602 302.977C409.013 306.448 381.025 315.937 336.722 331.214C263.336 356.635 214.146 384.34 191.973 395.549C175.727 403.696 158.827 410.466 141.45 415.788C81.3366 434.371 -5.17279 443.54 -130.037 421.212M1975.42 196.013C1844.97 199.231 1739.42 178.836 1660.54 150.951C1597.91 128.823 1549.69 101.441 1488.99 84.2663C1475.14 80.3237 1460.79 76.3615 1445.49 73.2329C1350.25 53.6818 1288.94 55.8138 1262.12 59.8556C1227.58 65.1074 1225.24 64.913 1173.75 85.9013C1137.71 100.626 1111.34 110.76 1091.19 118.026C1057.22 130.213 1040.67 133.543 1015.6 150.867C1006.06 157.529 997.209 165.135 989.186 173.569C951.923 212.057 953.684 254.033 888.091 303.195C830.427 346.45 735.31 382.057 646.791 365.746C639.29 364.285 632.339 362.776 625.775 360.804C553.273 340.163 533.775 297.158 458.144 296.864C449.932 296.796 441.725 297.272 433.576 298.289C405.508 301.653 377.545 310.948 334.334 326.02C263.361 350.711 214.984 377.957 190.709 390.018C174.592 398.093 157.854 404.862 140.656 410.258C81.1197 429.088 -4.85564 439.683 -128.215 420.553M1978.29 217.66C1852.53 222.099 1744.84 205.423 1660.04 176.789C1594.17 154.526 1543.74 125.891 1484.09 107.51C1469.86 103.111 1455.32 98.4817 1439.94 94.7615C1345.15 71.8159 1283.97 70.7303 1255.23 69.7323C1219.68 68.5155 1215.15 69.6721 1164.79 90.0466C1129.75 104.253 1103.57 115.374 1083.8 123.61C1051 137.252 1035.71 141.836 1012.51 159.525C1003.56 166.576 995.209 174.369 987.56 182.822C951.694 220.927 949.314 260.564 883.423 305.458C824.701 345.496 729.949 376.839 642.969 360.538C635.531 359.073 628.623 357.559 622.107 355.647C547.454 334.602 527.839 293.873 455.116 293.359C446.96 293.266 438.808 293.709 430.71 294.683C402.16 297.92 374.141 307.071 332.077 321.826C263.557 345.761 215.949 372.532 189.608 385.612C173.584 393.579 156.988 400.339 139.96 405.837C81.001 424.914 -4.43843 436.957 -126.274 421.001M1981.17 239.337C1860.1 244.957 1750.31 232.038 1659.57 202.637C1590.43 180.219 1537.82 150.307 1479.17 130.768C1464.57 125.909 1449.87 120.59 1434.38 116.304C1340.03 90.0271 1278.94 83.6991 1248.33 79.6652C1212.16 74.8931 1205.14 74.4794 1155.81 94.2478C1121.69 108.008 1095.83 120.041 1076.49 129.178C1044.83 144.255 1030.83 150.132 1009.49 168.168C1001.13 175.592 993.285 183.566 985.995 192.038C951.501 229.72 944.982 267.038 878.783 307.793C819.002 344.593 724.638 371.693 639.178 355.426C631.825 353.952 624.959 352.435 618.468 350.563C541.645 329.138 521.975 290.891 452.126 290.033C444.027 289.946 435.931 290.355 427.882 291.258C398.895 294.384 370.946 303.358 329.859 317.811C263.753 341.037 216.937 367.352 188.524 381.388C172.613 389.281 156.166 396.041 139.304 401.617C80.9033 420.964 -4.00421 434.412 -124.333 421.675M1983.32 253.291C1866.93 260.091 1755.02 250.954 1658.35 220.783C1585.98 198.188 1531.15 166.937 1473.52 146.323C1458.58 140.983 1443.67 135.062 1428.08 130.144C1334.22 100.532 1273.16 89.0735 1240.75 81.8476C1203.95 73.6705 1194.3 71.5286 1146.16 90.6986C1119.57 101.314 1093.64 113.485 1068.48 127.147C1037.92 143.642 1025.26 150.852 1005.81 169.122C997.325 177.131 990.764 185.436 983.591 193.583C950.462 230.757 939.796 265.906 873.344 302.411C812.437 335.958 718.506 358.83 634.586 342.596C627.297 341.116 620.474 339.595 614.028 337.762C535.019 316.021 515.262 279.898 448.314 278.991C440.279 278.896 432.245 279.278 424.255 280.135C394.793 283.198 366.865 291.934 326.898 306.008C263.222 328.46 217.181 354.363 186.717 369.354C170.904 377.169 154.589 383.923 137.88 389.569C80.0591 409.185 -4.29117 424.078 -123.117 414.517M1985.2 263.207C1873.5 271.143 1759.47 265.765 1656.86 234.87C1581.24 212.096 1524.24 179.46 1467.6 157.924C1452.29 152.083 1437.22 145.536 1421.51 140.03C1328.05 107.157 1267 90.5903 1232.8 80.1282C1195.45 68.6464 1183.17 64.6684 1136.13 83.2265C1109.77 93.6262 1084.35 106.255 1060.13 120.976C1030.74 138.84 1019.33 147.433 1001.76 166.111C993.957 174.357 987.998 182.929 980.896 191.154C949.125 227.993 934.254 260.572 867.612 293.055C805.534 323.311 712.06 341.997 629.68 325.773C622.475 324.286 615.715 322.759 609.274 320.968C528.085 298.975 508.183 265.044 444.224 264.125C436.245 264.003 428.266 264.352 420.327 265.169C390.427 268.121 362.482 276.667 323.627 290.513C262.386 312.253 217.136 337.679 184.583 353.67C168.877 361.394 152.709 368.14 136.172 373.869C78.9093 393.754 -4.90525 410.095 -122.23 403.689M1987.02 273.276C1880.02 282.434 1763.91 280.727 1655.32 249.11C1576.48 226.136 1517.32 192.071 1461.65 169.485C1445.97 163.1 1430.7 155.931 1414.9 149.877C1321.87 113.781 1260.8 92.1959 1224.86 78.3433C1186.73 63.6627 1172.04 57.7658 1126.12 75.7101C1099.95 86.0088 1075.01 99.2085 1051.78 115.062C1023.6 134.249 1013.43 144.31 997.702 163.25C990.646 171.749 985.239 180.527 978.235 188.894C947.788 225.249 928.665 255.435 861.872 283.851C798.597 310.774 705.646 325.289 624.872 309.113C617.731 307.62 611.014 306.089 604.617 304.316C521.234 281.922 501.341 250.234 440.183 249.104C432.268 248.977 424.35 249.291 416.469 250.046C386.081 252.787 358.17 261.244 320.423 274.819C261.591 295.786 217.158 320.797 182.51 337.724C166.912 345.386 150.884 352.139 134.507 357.95C77.8165 378.02 -5.46236 395.807 -121.257 392.639M2183.63 162.54C2081.31 172.879 1768.33 295.737 1653.8 263.396C1571.72 240.223 1510.4 204.707 1455.69 181.201C1439.7 174.332 1424.2 166.606 1408.31 159.834C1315.7 120.517 1254.56 93.916 1216.91 76.6712C1178.05 58.8089 1160.92 50.9528 1116.09 68.2852C1090.12 78.4745 1065.67 92.1828 1043.42 109.026C1016.28 129.572 1007.55 141.085 993.654 160.286C987.328 169.061 982.427 178.007 975.542 186.512C946.421 222.407 923.082 250.13 856.142 274.543C791.623 298.074 699.224 308.501 619.926 292.341C612.848 290.843 606.173 289.308 599.824 287.594C514.24 264.95 494.304 235.403 436.019 234.142C428.159 234.008 420.297 234.289 412.467 234.984C381.616 237.574 353.631 245.91 317.03 259.168C260.653 279.401 216.993 303.979 180.273 321.862C164.789 329.47 148.91 336.245 132.703 342.156C76.5767 362.559 -6.17392 381.709 -120.464 381.739M2185.48 172.606C2087.83 184.062 1772.7 310.618 1652.24 277.573C1566.82 254.187 1503.47 217.188 1449.69 192.809C1433.34 185.394 1417.64 177.109 1401.67 169.747C1309.49 127.271 1248.27 95.6776 1208.92 74.9326C1169.25 54.0025 1149.73 44.0964 1106.02 60.815C1080.23 70.9607 1056.26 85.2317 1035.05 103.07C1009.02 124.903 1001.65 137.961 989.593 157.402C983.997 166.453 979.664 175.54 972.774 184.217C944.934 219.633 917.325 244.771 850.294 265.303C784.527 285.4 692.704 291.78 614.925 275.654C607.932 274.148 601.3 272.609 594.985 271.042C507.219 248.125 487.219 220.72 431.852 219.367C424.034 219.184 416.211 219.433 408.42 220.113C377.122 222.721 349.214 230.729 313.605 243.62C259.663 263.121 216.797 287.264 177.984 306.105C163.962 312.925 148.367 319.823 130.813 326.32C75.264 346.97 -6.95092 367.568 -119.717 370.772M2187.29 182.377C2094.43 195.025 1777.18 325.298 1650.74 291.574C1562.18 267.959 1496.62 229.45 1443.75 204.219C1427.07 196.257 1411.16 187.437 1395.08 179.442C1303.27 133.814 1241.92 97.2538 1201.01 73.0165C1160.52 48.8913 1138.65 37.0606 1096.04 53.1674C1070.41 63.2792 1046.89 78.097 1026.69 96.8565C1001.75 120.003 995.9 134.611 985.551 154.261C980.685 163.589 976.88 172.842 970.172 181.652C943.61 216.546 911.764 239.225 844.655 255.79C777.545 272.354 686.369 274.765 610.132 258.671C603.203 257.159 596.612 255.617 590.34 254.046C500.37 230.857 480.306 205.595 427.772 204.136C420.031 203.932 412.284 204.152 404.567 204.797C372.743 207.261 344.907 215.113 310.495 227.768C258.962 246.517 216.914 270.244 176.006 290.023C162.044 296.794 146.574 303.659 129.241 310.244C74.2699 331.141 -7.41096 353.165 -118.671 359.587M2189.08 192.024C2100.83 205.901 1781.58 339.795 1649.16 305.414C1557.3 281.648 1489.73 241.503 1437.77 215.507C1420.75 206.978 1404.62 197.643 1388.4 189.02C1296.98 140.215 1235.49 98.7533 1193.04 70.8946C1151.67 43.815 1127.4 29.8073 1086.07 45.3081C1058.62 55.6035 1034.5 73.9531 1018.36 90.4299C994.466 114.849 989.962 131.067 981.511 150.909C977.416 160.509 974.118 169.93 967.531 178.9C942.222 213.232 906.193 233.34 838.972 246.047C770.643 259.025 679.994 257.543 605.297 241.481C598.453 239.961 591.905 238.415 585.654 236.842C493.5 213.359 473.394 190.237 423.798 188.684C416.113 188.461 408.421 188.649 400.755 189.245C368.51 191.534 340.662 199.258 307.229 211.632C258.13 229.649 216.939 252.936 173.938 273.672C160.034 280.375 144.693 287.25 127.6 293.876C73.1867 315.044 -7.96022 338.494 -117.7 348.048M2190.87 201.54C2107.31 216.618 1786.03 353.9 1647.59 319.1C1552.63 294.844 1482.86 253.403 1431.76 226.581C1414.43 217.46 1398.02 207.637 1381.78 198.375C1290.69 146.528 1229.03 99.9968 1185.05 68.6862C1142.76 38.5695 1116.34 22.4911 1075.93 37.3741C1049.45 47.1981 1025.54 66.384 1009.89 83.9267C987.056 109.618 984.124 127.403 977.359 147.478C973.974 157.356 971.22 166.899 964.734 176.031C940.687 209.908 900.398 227.301 833.103 236.34C763.443 245.678 673.432 240.355 600.275 224.304C593.489 222.794 586.99 221.243 580.78 219.652C486.405 195.942 466.252 174.918 419.554 173.275C411.932 173.022 404.301 173.175 396.694 173.734C363.989 175.893 336.128 183.469 303.777 195.532C257.132 212.794 216.702 235.755 171.579 257.367C157.737 264.042 142.54 270.861 125.645 277.556C71.8116 298.991 -8.80122 323.867 -117.032 336.662M2192.65 210.912C2113.79 227.148 1790.38 368.147 1646.01 332.643C1547.81 308.188 1475.94 265.099 1425.74 237.575C1408.1 227.906 1391.47 217.547 1375.12 207.655C1284.37 152.721 1222.43 101.215 1177.06 66.3121C1133.81 33.1408 1105.15 14.9143 1065.95 29.1971C1040.4 38.5305 1016.67 58.5759 1001.58 77.223C979.752 104.191 978.396 123.586 973.38 143.866C970.832 154.032 968.477 163.731 962.131 173C939.169 206.351 894.834 223.17 827.294 226.376C756.286 229.746 666.93 222.912 595.292 206.894C588.576 205.377 582.127 203.822 575.946 202.229C479.34 178.421 459.169 159.343 415.369 157.609C407.802 157.343 400.226 157.47 392.673 157.989C359.509 160.04 331.567 167.432 300.402 179.131C256.284 195.759 216.575 218.42 169.369 240.861C155.587 247.488 140.517 254.295 123.863 261.054C70.5876 282.759 -9.49138 309.062 -116.196 325.052M2194.51 220.165C2120.32 237.54 1794.82 382.296 1644.5 346.067C1543.06 321.413 1469.22 276.685 1419.81 248.364C1401.8 238.109 1384.95 227.278 1368.54 216.665C1278.08 158.585 1216.02 102.218 1169.11 63.7146C1124.83 27.5389 1093.89 7.29527 1055.77 20.9468C1031.18 29.7878 1007.63 50.6714 993.064 70.4248C972.246 98.6262 972.53 119.626 969.134 140.102C967.381 150.559 965.465 160.39 959.242 169.839C937.62 202.643 889.048 214.63 821.496 216.278C749.409 218.099 660.461 205.331 590.364 189.346C583.816 187.799 577.269 186.253 571.166 184.667C472.376 160.564 452.118 143.61 411.217 141.807C403.713 141.51 396.199 141.603 388.704 142.085C355.08 144.006 327.231 151.24 297.067 162.678C255.268 178.477 216.429 200.59 167.16 224.092C153.416 230.674 138.444 237.366 121.976 244.299C69.2686 266.146 -10.2881 293.982 -115.382 313.161M2196.17 229.333C2126.67 247.928 1799.09 396.355 1642.79 359.427C1538.02 334.582 1462.28 288.102 1413.75 259.125C1395.51 248.249 1378.3 236.981 1361.83 225.774C1271.57 164.857 1209.4 103.2 1161.19 61.1396C1115.96 21.8226 1082.92 -0.453342 1045.75 12.6421C1022.12 20.9905 998.714 42.7161 984.691 63.5528C964.871 93.117 966.825 115.59 965.053 136.304C964.16 147.068 962.639 157.013 956.559 166.621C936.127 198.89 883.367 208.006 815.755 206.134C742.455 204.198 654.006 187.709 585.47 171.733C578.922 170.186 572.522 168.627 566.435 167.21C465.44 142.815 445.153 127.914 407.128 126.023C399.631 125.739 392.125 125.845 384.639 126.342C353.446 127.975 322.73 134.715 293.714 146.293C254.349 161.36 216.304 183.039 164.942 207.499C151.256 214.011 136.437 220.753 120.247 227.683C44.5173 259.669 -34.0845 284.365 -114.493 301.436M2197.92 238.425C2133.11 258.202 1803.42 410.344 1641.19 372.69C1533.25 347.638 1455.47 299.549 1407.64 269.825C1195.33 137.758 1117.35 -24.0928 1035.57 4.24281C1012.91 12.0987 989.64 34.6665 976.186 56.6056C947.447 103.427 971.033 134.845 953.722 163.329C911.286 233.179 687.378 179.635 561.54 149.553C438.845 120.214 433.278 107.703 380.702 110.308C288.923 114.803 244.688 155.821 118.419 210.882C43.3316 243.496 -34.3396 269.797 -113.789 289.513M2198.47 244.487C2132.01 265.715 1806.41 415.821 1651.31 379.768C1544.23 354.789 1469.5 305.89 1418.22 274.724C1213.43 150.399 1139.74 2.39075 1055.76 23.7674C1022.95 32.111 990.111 45.8627 969.269 64.2802C928.32 100.493 947.206 127.87 924.092 155.958C873.495 217.485 665.081 172.33 545.396 145.112C428.796 118.47 423.283 108.455 368.099 115.568C276.401 127.384 233.949 163.989 115.068 216.632C40.8967 249.462 -36.1976 275.237 -115.194 293.614M2199.03 250.803C2088.28 287.04 1774.98 413.224 1661.45 387.079C1555.24 362.193 1483.67 312.431 1428.83 279.857C1231.77 162.889 1161.12 26.5304 1075.95 43.5268C1032.74 52.1671 991.82 57.054 962.375 72.209C911.85 98.1323 924.177 120.738 894.485 148.842C837.753 202.482 642.805 165.258 529.252 140.905C418.939 116.944 413.438 109.214 355.497 121.063C264.073 139.735 223.251 172.603 111.741 222.637C38.5052 255.663 -37.9912 280.91 -116.491 297.961M2200.04 262.037C2092.61 298.289 1782.46 424.826 1672.01 399.311C1566.68 374.495 1498.26 323.872 1439.88 289.907C1250.9 179.988 1183.64 70.3323 1096.6 68.2028C1042.16 66.8737 994.726 73.7152 955.9 85.0369C897.232 102.122 902.205 118.489 865.295 146.625C804.191 193.202 620.946 163.319 513.571 141.615C409.394 120.562 404.102 114.693 343.355 131.453C252.212 156.595 213.01 186.091 108.831 233.541C36.5254 266.795 -39.399 291.525 -117.412 307.233M2201.58 279.141C2097.47 315.394 1790.48 442.263 1683.12 417.347C1578.65 392.582 1513.4 341.096 1451.45 305.765C1270.67 202.649 1204.98 103.898 1117.76 98.6873C1052.96 94.8305 995.182 85.2122 949.969 103.67C887.753 129.066 885.481 130.638 836.65 150.213C780.387 201.46 599.627 167.122 498.391 148.133C400.4 129.834 395.296 125.808 331.717 147.673C240.887 178.919 203.322 205.469 106.466 250.249C35.086 283.723 -40.2764 307.933 -117.789 322.288M2203.15 296.651C2102.38 332.921 1798.53 460.182 1694.23 435.962C1590.62 411.289 1528.56 358.876 1463.03 322.201C1290.6 225.661 1226.44 136.856 1139.06 129.737C1063.74 123.624 1000.21 108.884 944.046 122.902C871.623 140.971 864.714 137.064 808.013 154.399C748.331 200.87 578.362 171.328 483.366 155.216C391.561 139.671 386.604 137.277 320.233 164.458C229.563 201.523 193.792 225.453 104.233 267.524C33.7783 301.221 -41.0334 324.911 -118.033 337.909M2204.75 314.496C2107.34 350.727 1806.66 478.343 1705.45 454.799C1602.7 430.198 1543.87 376.852 1474.72 338.859C1310.68 248.72 1248.01 169.353 1160.2 161.033C1074.6 152.92 1005.35 146.174 938.228 142.334C855.34 137.588 844.051 143.67 779.482 158.787C716.285 200.618 557.128 175.848 468.173 162.546C382.555 149.756 377.732 148.866 308.582 181.49C218.241 224.123 184.144 245.766 101.942 285.058C32.4044 318.967 -41.865 342.14 -118.337 353.79M2206.37 332.577C2129.53 362.519 1828.92 500.671 1716.63 473.898C1614.7 449.587 1559.15 395.047 1486.39 355.777C1330.87 271.857 1269.6 201.616 1181.47 192.576C1085.39 182.737 1008.68 171.558 932.37 162.03C840.977 150.593 820.257 138.723 750.909 163.438C679.057 189.041 535.921 180.689 453.109 170.124C373.675 160.066 368.939 160.621 297.057 198.748C206.731 246.786 174.608 266.37 99.5642 302.838C52.9127 325.506 -17.7935 356.027 -118.727 369.915M2208.03 350.969C2129.45 382.328 1833.02 518.48 1727.85 493.286C1626.79 469.068 1574.5 413.465 1498.08 372.986C1351.18 295.147 1291.5 233.801 1202.75 224.412C1096.2 213.124 1011.85 197.377 926.56 182.014C826.435 163.972 800.209 145.74 722.386 168.377C648.212 190.023 514.748 185.649 438.051 177.994C364.759 170.672 359.957 172.388 285.541 216.32C195.217 269.613 165.148 287.346 97.3204 320.898C51.3796 343.63 -18.246 374.053 -118.981 386.343M2209.7 369.582C2129.33 402.47 1837.14 536.509 1739.1 512.916C1638.9 488.791 1589.91 432.1 1509.79 390.438C1371.57 318.547 1313.41 266.017 1224.06 256.489C1106.96 243.995 1014.95 223.511 920.771 202.241C811.746 177.629 780.204 153.488 693.883 173.558C617.292 191.363 493.605 190.957 423.034 186.104C356.008 181.465 350.992 184.375 274.066 234.131C183.609 292.608 155.736 308.625 95.097 339.2C49.8477 362.019 -18.6472 392.426 -119.216 402.992M2211.39 388.467C2129.38 422.721 1841.26 554.791 1750.37 532.796C1651.03 508.743 1605.37 450.896 1521.53 408.139C1392.06 342.083 1335.92 287.895 1245.38 288.817C1117.02 290.115 1018 249.923 915.003 222.717C796.994 191.566 753.86 141.099 665.4 178.99C591.512 210.716 472.557 196.381 408.018 194.466C347.219 192.578 341.977 196.533 262.588 252.174C171.927 315.754 146.395 330.236 92.8942 357.752C48.3595 380.678 -19.0526 411.009 -119.429 419.911M2213.14 407.967C2129.4 443.68 1845.45 573.643 1761.69 553.42C1663.23 529.437 1620.94 470.346 1533.33 426.582C1412.56 366.259 1358.05 322.373 1266.79 321.885C1127.85 321.103 1021.04 277.105 909.282 243.937C782.205 206.254 735.787 152.515 636.965 185.165C558.582 211.079 451.441 202.708 393.09 203.569C338.494 204.369 332.854 209.364 251.202 270.978C160.226 339.608 137.128 352.652 90.7389 377.049C46.9417 400.1 -19.3915 430.312 -119.597 437.554M2215.01 428.695C2129.56 465.866 1849.78 593.807 1773.11 575.038C1675.52 551.127 1636.66 490.702 1545.23 446.022C1433.37 391.346 1380.29 357.844 1288.26 355.952C1138.7 352.88 1024.13 305.308 903.673 266.173C767.418 221.903 717.378 166.14 608.643 192.356C525.963 212.29 430.513 209.915 378.232 213.669C329.878 217.132 323.774 223.152 239.886 290.78C148.547 364.421 127.917 376.153 88.6966 397.36C45.6428 420.601 -19.7445 450.642 -119.651 456.212M2216.9 449.784C2129.72 488.414 1854.12 614.29 1784.58 597.143C1687.84 573.283 1652.46 511.39 1557.16 465.948C1454.16 416.82 1402.64 393.754 1309.8 390.503C1149.67 384.902 1027.22 333.981 898.106 288.875C752.546 238.051 698.603 181.165 580.362 200.012C493.588 213.842 409.6 217.548 363.438 224.254C321.343 230.337 314.667 237.349 228.633 311.067C136.803 389.709 118.975 400.291 86.6975 418.159C44.4352 441.649 -19.8192 471.46 -119.663 475.357M2218.96 472.74C2130.05 512.808 1858.68 636.508 1796.21 621.095C1700.38 597.089 1668.53 533.746 1569.26 487.721C1475.15 444.073 1425.16 431.488 1331.48 426.903C1160.85 418.552 1030.43 364.525 892.786 313.415C738.091 256.022 679.943 207.742 552.328 209.507C461.393 210.785 388.955 227.018 348.87 236.68C312.967 245.345 305.721 253.391 217.604 333.173C125.264 416.84 110.209 426.189 84.9413 440.753C43.5473 464.635 -19.7781 494.085 -119.429 496.32M2221 495.458C2130.39 536.983 1863.17 658.642 1807.81 644.832C1712.86 620.895 1684.68 555.64 1581.35 509.277C1496.14 471.044 1447.72 468.98 1353.17 463.084C1172.04 451.791 1033.6 394.834 887.266 337.776C723.241 273.789 659.675 221.554 524.094 218.824C429.93 216.974 368.055 236.165 334.141 248.903C304.408 260.131 296.525 269.175 206.417 355.097C113.456 443.735 101.34 452.028 82.9867 463.191C42.6342 487.727 -19.9181 516.508 -119.398 517.083M2223.04 518.202C2130.76 561.16 1867.53 680.814 1819.43 668.571C1725.42 644.7 1700.95 577.187 1593.43 530.838C1517.12 497.935 1470.29 506.475 1374.83 499.272C1183.29 484.815 1036.74 425.064 881.845 362.113C708.492 291.552 639.33 235.292 495.959 228.115C398.211 223.234 347.161 245.209 319.471 261.125C295.846 274.708 287.428 284.932 195.289 377.021C101.686 470.652 92.6203 477.944 81.131 485.603C42.291 511.52 -19.9554 538.949 -119.264 537.862" stroke="#DAE2EB" stroke-miterlimit="10"/>
</svg>