<svg width="375" height="370" viewBox="0 0 375 370" fill="none" xmlns="http://www.w3.org/2000/svg">
<path d="M562.621 86.6055C485.534 87.1021 429.706 71.6048 392.735 57.1634C355.348 42.5591 327.819 25.3226 279.78 19.0531C226.788 12.0524 193.319 20.348 180.159 24.5032C161.915 30.2714 163.321 32.9483 133.727 45.1823C76.8779 68.6855 65.0391 61.5779 39.9187 76.0236C-1.7327 99.9702 13.9526 129.195 -28.468 167.005C-59.1868 194.395 -111.932 218.741 -162.433 209.714C-209.989 201.209 -218.073 169.815 -267.314 169.697C-287.541 169.648 -303.854 175.278 -336.469 186.535C-378.273 200.907 -405.814 216.466 -416.901 222.06C-449.743 238.651 -503.949 252.115 -596.072 233.507M564.061 96.8683C489.552 98.0159 432.565 84.5667 392.323 69.7724C359.615 57.5498 334.218 43.2072 300.201 34.3892C292.762 32.4685 284.945 30.6645 276.573 29.252C223.824 20.3681 190.214 25.6491 176.223 28.289C157.46 31.8187 157.647 33.8987 128.636 45.8092C108.189 54.1909 93.5434 59.2459 82.1603 62.7226C62.8095 68.6259 52.9624 69.7967 38.1128 79.1343C32.5698 82.5941 27.4436 86.681 22.8354 91.3141C1.52086 112.732 4.70313 137.159 -31.2025 166.595C-62.4567 192.219 -115.049 214.207 -164.7 205.197C-168.634 204.481 -172.529 203.566 -176.37 202.457C-215.137 191.24 -225.853 166.326 -269.139 166.166C-273.701 166.142 -278.26 166.424 -282.784 167.008C-297.994 168.921 -313.425 174.153 -337.849 182.575C-378.308 196.59 -405.427 211.864 -417.651 218.043C-426.607 222.535 -435.924 226.268 -445.504 229.202C-478.646 239.447 -526.339 244.502 -595.178 232.192M565.582 108.037C493.662 109.811 435.472 98.5677 391.986 83.1941C357.454 70.9947 330.871 55.8992 297.408 46.4304C289.77 44.2568 281.859 42.0724 273.424 40.3476C220.917 29.5689 187.115 30.7443 172.334 32.9725C153.29 35.8679 151.997 35.7608 123.615 47.3318C103.744 55.4495 89.2058 61.0366 78.094 65.0426C59.3699 71.7611 50.2421 73.5973 36.4246 83.1481C31.1625 86.8209 26.2832 91.0141 21.8604 95.6641C1.31706 116.883 2.28758 140.025 -33.8746 167.128C-65.6653 190.975 -118.104 210.605 -166.905 201.613C-171.041 200.808 -174.873 199.975 -178.492 198.888C-218.462 187.509 -229.212 163.8 -270.908 163.637C-275.435 163.6 -279.96 163.863 -284.453 164.423C-299.927 166.278 -315.343 171.402 -339.166 179.712C-378.294 193.324 -404.965 208.345 -418.348 214.994C-427.233 219.446 -436.461 223.178 -445.942 226.153C-478.765 236.534 -526.164 242.375 -594.173 231.828M567.16 119.971C497.832 122.419 438.46 113.225 391.71 97.4391C355.393 85.165 327.594 69.3782 294.707 59.2449C286.858 56.8194 278.843 54.2675 270.368 52.2165C218.105 39.5664 184.379 38.9679 168.535 38.4177C148.936 37.7468 146.437 38.3845 118.673 49.6171C99.3539 57.4495 84.9231 63.5805 74.0242 68.1209C55.9375 75.6419 47.5078 78.169 34.7212 87.9214C29.7829 91.8086 25.1808 96.1051 20.9637 100.765C1.1906 121.773 -0.121727 143.625 -36.4481 168.375C-68.8219 190.449 -121.059 207.728 -169.012 198.742C-173.113 197.934 -176.921 197.099 -180.514 196.045C-221.671 184.443 -232.485 161.988 -272.578 161.705C-277.074 161.654 -281.569 161.898 -286.033 162.435C-301.773 164.22 -317.22 169.265 -340.41 177.399C-378.186 190.595 -404.432 205.354 -418.955 212.565C-427.789 216.957 -436.938 220.684 -446.326 223.715C-478.831 234.233 -525.934 240.872 -593.103 232.075M568.752 131.922C502.003 135.021 441.474 127.899 391.447 111.69C353.332 99.3302 324.327 82.8394 291.996 72.067C283.947 69.3886 275.839 66.4562 267.3 64.0929C215.285 49.6064 181.605 46.1177 164.728 43.8938C144.788 41.2629 140.916 41.0348 113.722 51.9333C94.9114 59.5196 80.6553 66.1532 69.9895 71.1909C52.5391 79.5026 44.8212 82.743 33.0528 92.6863C28.447 96.779 24.12 101.175 20.101 105.846C1.08432 126.621 -2.50995 147.194 -39.0058 169.663C-71.9639 189.951 -123.987 204.891 -171.102 195.923C-175.156 195.111 -178.941 194.274 -182.52 193.242C-224.873 181.43 -235.717 160.345 -274.226 159.871C-278.691 159.824 -283.155 160.049 -287.592 160.547C-303.573 162.271 -318.981 167.218 -341.633 175.186C-378.078 187.99 -403.888 202.498 -419.552 210.236C-428.324 214.588 -437.392 218.315 -446.688 221.389C-478.885 232.055 -525.695 239.469 -592.033 232.447M569.937 139.615C505.767 143.364 444.07 138.327 390.779 121.694C350.876 109.236 320.651 92.0074 288.879 80.6428C280.641 77.6986 272.422 74.4347 263.828 71.723C212.083 55.398 178.42 49.0806 160.549 45.0969C140.264 40.5888 134.94 39.408 108.4 49.9766C93.7446 55.8292 79.4461 62.5389 65.5781 70.0708C48.728 79.1648 41.7473 83.1397 31.027 93.2122C26.3472 97.6276 22.7304 102.206 18.7759 106.698C0.511359 127.192 -5.36912 146.57 -42.0047 166.695C-75.5832 185.19 -127.368 197.8 -173.634 188.85C-177.653 188.034 -181.414 187.196 -184.968 186.185C-228.526 174.199 -239.418 154.284 -276.327 153.784C-280.757 153.732 -285.186 153.942 -289.591 154.415C-305.834 156.103 -321.231 160.92 -343.266 168.679C-378.371 181.057 -403.753 195.337 -420.548 203.602C-429.266 207.91 -438.261 211.634 -447.473 214.747C-479.35 225.561 -525.853 233.772 -591.363 228.501M570.97 145.082C509.388 149.458 446.523 146.492 389.957 129.459C348.267 116.904 316.842 98.9118 285.614 87.0387C277.174 83.8183 268.865 80.2091 260.207 77.1733C208.678 59.0501 175.021 49.9169 156.166 44.149C135.575 37.819 128.806 35.6259 102.872 45.8572C88.34 51.5906 74.3234 58.5531 60.9741 66.669C44.7689 76.5176 38.4809 81.2547 28.7937 91.5521C24.4908 96.0984 21.205 100.824 17.2898 105.359C-0.225856 125.668 -8.42417 143.629 -45.1646 161.538C-79.3888 178.218 -130.922 188.52 -176.339 179.575C-180.311 178.756 -184.038 177.914 -187.589 176.926C-232.349 164.801 -243.321 146.095 -278.582 145.588C-282.981 145.521 -287.38 145.713 -291.757 146.164C-308.241 147.791 -323.647 152.503 -345.069 160.136C-378.831 172.122 -403.778 186.139 -421.725 194.955C-430.384 199.214 -439.297 202.933 -448.414 206.091C-479.984 217.054 -526.192 226.063 -590.874 222.531M571.974 150.633C512.985 155.682 448.971 154.741 389.107 137.31C345.64 124.644 313.026 105.864 282.334 93.4124C273.692 89.8923 265.269 85.9399 256.56 82.6024C205.272 62.7024 171.602 50.802 151.79 43.165C130.77 35.0714 122.67 31.8204 97.3524 41.7133C82.9247 47.3911 69.1782 54.6682 56.3704 63.4085C40.8312 73.9863 35.2284 79.5333 26.5553 89.9748C22.6653 94.6606 19.6842 99.5 15.823 104.112C-0.962716 124.156 -11.5054 140.797 -48.3293 156.463C-83.2132 171.306 -134.458 179.309 -178.989 170.39C-182.926 169.567 -186.63 168.723 -190.157 167.746C-236.126 155.4 -247.093 137.93 -280.81 137.307C-285.174 137.237 -289.539 137.41 -293.884 137.826C-310.637 139.337 -326.025 144 -346.835 151.484C-379.27 163.043 -403.766 176.832 -422.868 186.164C-431.467 190.388 -440.304 194.111 -449.332 197.315C-480.586 208.379 -526.499 218.186 -590.338 216.439M680.369 89.5834C623.959 95.2831 451.41 163.016 388.27 145.186C343.016 132.411 309.211 112.831 279.051 99.8716C270.231 96.0847 261.686 91.8253 252.93 88.0916C201.871 66.4157 168.165 51.7504 147.407 42.2431C125.983 32.3955 116.537 28.0643 91.8255 37.6199C77.506 43.2373 64.025 50.7949 51.7603 60.0806C36.7949 71.4077 31.9824 77.7551 24.3233 88.3408C20.8357 93.1787 18.1338 98.1107 14.3383 102.8C-1.71648 122.589 -14.5836 137.873 -51.488 151.332C-87.0579 164.305 -137.999 170.053 -181.716 161.144C-185.618 160.318 -189.298 159.472 -192.799 158.527C-239.982 146.043 -250.973 129.754 -283.106 129.059C-287.439 128.984 -291.773 129.139 -296.09 129.523C-313.099 130.951 -328.527 135.546 -348.706 142.855C-379.787 154.01 -403.857 167.56 -424.101 177.419C-432.637 181.614 -441.392 185.348 -450.327 188.607C-481.27 199.856 -526.891 210.414 -589.9 210.43M681.386 95.1328C627.552 101.448 453.819 171.22 387.406 153.002C340.316 140.109 305.389 119.712 275.739 106.271C266.727 102.183 258.073 97.6157 249.264 93.5569C198.449 70.1391 164.696 52.7215 143 41.2847C121.129 29.7457 110.368 24.2844 86.2743 33.5015C72.0556 39.0949 58.8398 46.9626 47.1438 56.7968C32.7957 68.8339 28.7309 76.0327 22.0848 86.7508C18.9995 91.741 16.6108 96.7507 12.8121 101.534C-2.53619 121.059 -17.7572 134.918 -54.7123 146.238C-90.9705 157.318 -141.593 160.834 -184.473 151.944C-188.328 151.114 -191.985 150.266 -195.466 149.402C-243.853 136.767 -254.879 121.658 -285.403 120.913C-289.714 120.812 -294.026 120.949 -298.322 121.324C-315.576 122.762 -330.962 127.177 -350.594 134.284C-380.333 145.035 -403.965 158.345 -425.363 168.732C-433.093 172.492 -441.691 176.295 -451.369 179.877C-481.994 191.262 -527.319 202.617 -589.488 204.384M682.388 100.52C631.192 107.492 456.289 179.313 386.58 160.721C337.758 147.702 301.615 126.471 272.464 112.562C263.272 108.172 254.497 103.309 245.633 98.9019C195.015 73.7465 161.194 53.5905 138.641 40.2283C116.318 26.9278 104.261 20.4055 80.7724 29.2853C66.6383 34.86 53.6705 43.0292 42.5374 53.3715C28.7843 66.1324 25.5617 74.1858 19.8564 85.0194C17.1735 90.1617 15.0757 95.263 11.3778 100.12C-3.26604 119.357 -20.823 131.861 -57.8213 140.993C-94.8197 150.125 -145.085 151.454 -187.116 142.581C-190.936 141.748 -194.569 140.898 -198.027 140.031C-247.628 127.247 -258.69 113.32 -287.653 112.516C-291.921 112.403 -296.191 112.525 -300.446 112.88C-317.991 114.239 -333.337 118.568 -352.309 125.544C-380.719 135.881 -403.901 148.962 -426.454 159.866C-434.151 163.599 -442.68 167.384 -452.235 171.014C-482.542 182.535 -527.573 194.677 -588.911 198.217M683.371 105.838C634.721 113.489 458.714 187.306 385.71 168.351C335.067 155.249 297.817 133.117 269.171 118.784C259.786 114.082 250.891 108.936 241.949 104.182C191.551 77.2754 157.652 54.4172 134.248 39.0584C111.437 24.1292 98.0594 16.4067 75.2712 24.9524C60.1399 30.6283 46.8443 40.7446 37.9433 49.8285C24.7713 63.2908 22.2881 72.2318 17.6287 83.1713C15.3714 88.4637 13.5529 93.6576 9.92176 98.6027C-4.03145 117.531 -23.8945 128.616 -60.9542 135.622C-98.6248 142.777 -148.6 141.959 -189.781 133.104C-193.555 132.266 -197.164 131.414 -200.611 130.547C-251.416 117.6 -262.501 104.853 -289.843 103.997C-294.08 103.874 -298.321 103.977 -302.547 104.306C-320.324 105.568 -335.677 109.827 -354.109 116.648C-381.178 126.581 -403.887 139.42 -427.594 150.852C-435.259 154.547 -443.716 158.337 -453.14 161.99C-483.139 173.66 -527.876 186.588 -588.376 191.856M684.362 111.084C638.292 119.397 461.168 195.082 384.845 175.896C332.494 162.524 294.026 139.677 265.857 124.89C256.302 119.862 247.253 114.446 238.303 109.34C188.084 80.7559 154.087 55.1028 129.841 37.841C106.527 21.2374 91.9627 12.3731 69.6857 20.5783C55.0847 25.9944 41.9011 36.5717 33.2766 46.2432C20.6858 60.407 19.0693 70.2122 15.3401 81.2798C13.4735 86.7255 11.9554 91.9866 8.37937 97.0209C-4.87796 115.698 -27.0896 125.287 -64.1896 130.27C-102.594 135.418 -152.218 132.484 -192.55 123.635C-196.291 122.802 -199.874 121.947 -203.298 121.07C-255.327 107.998 -266.438 96.4076 -292.183 95.5017C-296.385 95.3622 -300.592 95.4466 -304.786 95.7548C-322.817 96.945 -338.177 101.122 -356.012 107.772C-381.728 117.289 -404.017 129.948 -428.894 141.862C-436.525 145.543 -444.903 149.302 -454.218 152.993C-483.897 164.81 -528.339 178.525 -588.008 185.578M685.343 116.251C641.862 125.203 463.568 202.936 383.972 183.363C329.832 169.881 290.211 146.125 262.538 130.951C252.813 125.62 243.644 119.909 234.627 114.456C184.597 84.1702 150.448 55.7744 125.436 36.5321C101.593 18.2445 85.7921 8.19602 64.1803 16.0702C50.0968 21.2159 37.0146 32.267 28.6921 42.5474C16.6592 57.4148 15.9114 68.1076 13.1464 79.2885C11.7415 84.8928 10.4432 90.2401 6.94462 95.3499C-5.71449 113.737 -30.157 123.009 -67.3925 124.777C-106.54 126.635 -155.803 122.867 -195.297 114.036C-199 113.2 -202.555 112.343 -205.963 111.464C-259.223 98.3386 -270.343 87.8208 -294.491 86.8651C-298.662 86.7186 -302.839 86.7885 -307.003 87.0747C-325.287 88.2053 -340.691 92.2803 -357.873 98.7301C-382.195 107.897 -404.087 120.391 -430.113 132.762C-437.711 136.416 -446.019 140.169 -455.201 143.895C-484.572 155.861 -528.72 170.362 -587.547 179.178M686.367 121.353C645.463 130.931 466.012 210.737 383.141 190.764C327.213 177.172 286.51 152.512 259.268 136.899C249.338 131.245 240.051 125.274 230.999 119.423C181.131 87.4031 146.918 56.3272 121.056 35.1001C96.6407 15.156 79.5857 3.99556 58.5669 11.5218C45.0126 16.3959 32.0307 27.9092 23.9985 38.7995C12.5213 54.3471 12.6774 65.9243 10.8054 77.2132C9.83902 82.9782 8.78276 88.3979 5.35207 93.6077C-6.56861 111.693 -33.3467 118.301 -70.5887 119.21C-110.331 120.214 -159.369 113.175 -198.014 104.362C-201.624 103.509 -205.234 102.657 -208.598 101.782C-263.062 88.4942 -274.23 79.147 -296.779 78.1531C-300.917 77.9892 -305.059 78.0404 -309.191 78.3065C-327.728 79.3657 -343.082 83.3537 -359.711 89.6595C-382.756 98.3697 -404.168 110.561 -431.33 123.518C-438.907 127.146 -447.162 130.836 -456.241 134.658C-485.299 146.702 -529.159 162.049 -587.099 172.622M687.279 126.407C648.968 136.659 468.368 218.488 382.2 198.129C324.437 184.432 282.681 158.807 255.925 142.832C245.87 136.836 236.385 130.623 227.303 124.445C177.542 90.8605 143.268 56.869 116.688 33.6804C91.7518 12.0046 73.5361 -0.276324 53.0433 6.94333C40.0181 11.5459 27.1133 23.5234 19.3821 35.0108C8.45526 51.3099 9.53221 63.6993 8.55532 75.1195C8.06344 81.0537 7.22478 86.5362 3.87259 91.8331C-7.39146 109.623 -36.4787 114.65 -73.7536 113.617C-114.165 112.55 -162.928 103.46 -200.712 94.6514C-204.322 93.799 -207.85 92.9392 -211.206 92.1581C-266.886 78.7089 -278.07 70.494 -299.034 69.4514C-303.167 69.2947 -307.305 69.3534 -311.432 69.6271C-328.629 70.5272 -345.563 74.243 -361.56 80.6266C-383.262 88.933 -404.237 100.885 -432.553 114.37C-440.098 117.96 -448.268 121.677 -457.194 125.497C-498.944 143.131 -542.278 156.747 -586.608 166.158M688.248 131.42C652.516 142.323 470.757 226.2 381.314 205.441C321.81 191.63 278.926 165.118 252.557 148.73C135.509 75.921 92.5183 -13.309 47.4342 2.31271C34.9382 6.64371 22.1105 19.0856 14.693 31.1808C-1.15078 56.9937 11.8522 74.3152 2.30878 90.0183C-21.087 128.528 -144.529 99.0081 -213.905 82.4237C-281.548 66.2485 -284.617 59.3514 -313.603 60.7874C-364.201 63.2655 -388.588 85.879 -458.202 116.235C-499.598 134.215 -542.419 148.715 -586.22 159.585M688.548 134.761C651.91 146.465 472.406 229.22 386.893 209.343C327.864 195.572 286.66 168.613 258.393 151.432C145.486 82.8899 104.865 1.29165 58.5646 13.0768C40.4748 17.6767 22.37 25.2582 10.8797 35.4119C-11.696 55.3766 -1.28382 70.4698 -14.0268 85.9549C-41.9215 119.875 -156.822 94.9806 -222.805 79.975C-287.088 65.2872 -290.128 59.7657 -320.551 63.6873C-371.105 70.2018 -394.509 90.3826 -460.049 119.405C-500.941 137.504 -543.443 151.714 -586.995 161.846M688.86 138.244C627.801 158.221 455.079 227.788 392.485 213.374C333.931 199.654 294.474 172.22 264.242 154.261C155.598 89.7761 116.648 14.6001 69.6951 23.9704C45.8724 28.7338 23.3126 31.428 7.0793 39.7831C-20.7756 54.0749 -13.9798 66.5375 -30.3496 82.0317C-61.6261 111.604 -169.103 91.0816 -231.706 77.6559C-292.522 64.4461 -295.555 60.1843 -327.498 66.7168C-377.902 77.0108 -400.407 95.1315 -461.884 122.715C-502.259 140.923 -544.432 154.842 -587.71 164.243M689.416 144.437C630.187 164.423 459.201 234.184 398.307 220.117C340.24 206.436 302.519 178.527 270.333 159.802C166.148 99.2029 129.062 38.7484 81.0803 37.5744C51.0637 36.8417 24.9143 40.6135 3.50924 46.8553C-28.8347 56.2745 -26.0931 65.2979 -46.4421 80.8093C-80.1294 106.488 -181.154 90.013 -240.351 78.0472C-297.785 66.4406 -300.702 63.205 -334.192 72.445C-384.44 86.306 -406.053 102.567 -463.488 128.727C-503.35 147.06 -545.208 160.694 -588.217 169.354M690.263 153.867C632.87 173.853 463.619 243.797 404.43 230.061C346.836 216.408 310.863 188.023 276.713 168.545C177.046 111.696 140.83 57.2534 92.7423 54.3808C57.018 52.2545 25.1661 46.9519 0.239385 57.1276C-34.0605 71.1289 -35.3135 71.9958 -62.2343 82.7872C-93.2524 111.04 -192.907 92.1096 -248.72 81.6408C-302.743 71.5525 -305.557 69.3325 -340.609 81.3873C-390.684 98.6135 -411.394 113.25 -464.792 137.938C-504.144 156.393 -545.692 169.74 -588.425 177.654M691.129 163.52C635.574 183.516 468.058 253.676 410.556 240.323C353.438 226.721 319.221 197.825 283.097 177.606C188.03 124.383 152.659 75.4239 104.49 71.4986C62.9649 68.1284 27.9386 60.0022 -3.02605 67.7304C-42.9532 77.6922 -46.7624 75.5384 -78.0222 85.0955C-110.926 110.715 -204.631 94.4283 -257.003 85.5458C-307.616 76.9758 -310.349 75.6556 -346.94 90.6409C-396.927 111.075 -416.648 124.268 -466.022 147.462C-504.865 166.039 -546.109 179.1 -588.56 186.266M692.013 173.358C638.306 193.333 472.54 263.689 416.742 250.708C360.098 237.146 327.66 207.736 289.54 186.79C199.101 137.095 164.55 93.3397 116.144 88.7525C68.9498 84.2798 30.7741 80.5605 -6.23313 78.4439C-51.9301 75.827 -58.1538 79.1801 -93.7516 87.5145C-128.592 110.576 -216.338 96.9205 -265.379 89.587C-312.581 82.5353 -315.24 82.0447 -353.363 100.031C-403.169 123.535 -421.967 135.467 -467.286 157.129C-505.622 175.823 -546.568 188.599 -588.728 195.021M692.908 183.326C650.541 199.834 484.814 275.998 422.905 261.238C366.711 247.835 336.087 217.767 295.971 196.117C210.233 149.851 176.453 111.126 127.87 106.143C74.9011 100.718 32.6075 94.5551 -9.46297 89.3023C-59.8488 82.9971 -71.2718 76.4529 -109.504 90.0785C-149.117 104.194 -228.029 99.5894 -273.684 93.7646C-317.477 88.2195 -320.088 88.5256 -359.717 109.545C-409.514 136.029 -427.224 146.826 -468.597 166.931C-494.316 179.428 -533.297 196.255 -588.942 203.911M693.819 193.466C650.498 210.755 487.075 285.816 429.094 271.927C373.377 258.575 344.549 227.921 302.418 205.604C221.433 162.691 188.529 128.87 139.599 123.694C80.858 117.471 34.3575 108.789 -12.6658 100.32C-67.8659 90.3729 -82.3245 80.3212 -125.229 92.8014C-166.122 104.735 -239.702 102.324 -281.986 98.1033C-322.392 94.0669 -325.04 95.0125 -366.066 119.233C-415.863 148.614 -432.439 158.39 -469.834 176.887C-495.161 189.42 -533.546 206.193 -589.083 212.968M694.74 203.728C650.435 221.859 489.345 295.756 435.295 282.749C380.053 269.449 353.044 238.194 308.877 215.226C232.673 175.591 200.605 146.631 151.35 141.378C86.7908 134.49 36.0632 123.198 -15.8576 111.471C-75.9644 97.9024 -93.3536 84.5928 -140.943 95.6579C-183.168 105.474 -251.358 105.25 -290.264 102.575C-327.217 100.017 -329.982 101.621 -372.392 129.052C-422.262 161.291 -437.628 170.122 -471.059 186.978C-496.006 199.558 -533.768 216.322 -589.212 222.147M695.674 214.139C650.459 233.024 491.615 305.835 441.508 293.709C386.74 280.448 361.57 248.557 315.346 224.984C243.966 188.567 213.018 158.693 163.102 159.201C92.3352 159.917 37.7466 137.758 -19.0377 122.76C-84.0969 105.586 -107.877 77.7626 -156.646 98.6523C-197.381 116.144 -262.962 108.24 -298.543 107.185C-332.062 106.143 -334.952 108.324 -378.72 138.999C-428.702 174.052 -442.778 182.036 -472.274 197.206C-496.826 209.845 -533.991 226.567 -589.33 231.475M696.639 224.889C650.472 244.579 493.927 316.228 447.746 305.079C393.465 291.857 370.153 259.28 321.854 235.152C255.268 201.895 225.218 177.701 174.903 177.432C98.3094 177.001 39.422 152.744 -22.1918 134.459C-92.2501 113.683 -117.841 84.0564 -172.322 102.057C-215.536 116.344 -274.603 111.728 -306.773 112.203C-336.872 112.644 -339.982 115.398 -384.997 149.366C-435.153 187.203 -447.887 194.394 -473.462 207.844C-497.608 220.553 -534.178 237.209 -589.422 241.201M697.666 236.317C650.558 256.81 496.315 327.345 454.046 316.997C400.24 303.815 378.817 270.502 328.411 245.87C266.745 215.726 237.48 197.256 186.742 196.213C104.288 194.52 41.1247 168.293 -25.2836 146.717C-100.403 122.311 -127.99 91.5681 -187.937 106.021C-233.519 117.011 -286.142 115.702 -314.964 117.771C-341.623 119.681 -344.987 123 -391.236 160.283C-441.592 200.882 -452.966 207.35 -474.588 219.042C-498.324 231.855 -534.373 248.417 -589.452 251.488M698.71 247.944C650.649 269.241 498.707 338.638 460.37 329.184C407.037 316.03 387.532 281.908 334.992 256.855C278.206 229.77 249.799 217.054 198.617 215.262C110.337 212.174 42.8266 184.101 -28.3528 159.233C-108.601 131.213 -138.341 99.8518 -203.528 110.242C-251.368 117.867 -297.671 119.91 -323.12 123.607C-346.328 126.96 -350.009 130.826 -397.44 171.468C-448.066 214.824 -457.895 220.658 -475.69 230.508C-498.99 243.459 -534.414 259.894 -589.458 262.043M699.844 260.599C650.83 282.689 501.218 350.887 466.783 342.389C413.949 329.154 396.386 294.233 341.662 268.859C289.776 244.795 262.218 237.857 210.569 235.329C116.499 230.725 44.5957 200.94 -31.2857 172.762C-116.571 141.121 -148.628 114.504 -218.983 115.477C-269.117 116.181 -309.053 125.131 -331.152 130.457C-350.946 135.235 -354.94 139.671 -403.52 183.655C-454.428 229.781 -462.728 234.935 -476.658 242.965C-499.479 256.131 -534.391 272.367 -589.33 273.599M700.971 273.124C651.016 296.017 503.694 363.089 473.178 355.475C420.83 342.279 405.293 306.303 348.326 280.743C301.348 259.665 274.652 258.527 222.527 255.276C122.67 249.05 46.3457 217.649 -34.3292 186.193C-124.758 150.916 -159.802 122.118 -234.549 120.613C-286.463 119.594 -320.575 130.174 -339.272 137.196C-355.664 143.386 -360.01 148.372 -409.687 195.742C-460.938 244.609 -467.618 249.181 -477.736 255.335C-499.983 268.862 -534.468 284.73 -589.312 285.046M702.096 285.663C651.223 309.346 506.098 375.313 479.581 368.563C427.756 355.403 414.262 318.182 354.987 292.63C312.914 274.49 287.096 279.198 234.47 275.227C128.873 267.257 48.0769 234.316 -37.3181 199.61C-132.889 160.709 -171.019 129.692 -250.061 125.736C-303.95 123.045 -332.094 135.16 -347.36 143.934C-360.385 151.423 -365.026 157.06 -415.823 207.829C-467.427 259.448 -472.425 263.468 -478.759 267.691C-500.172 281.979 -534.489 297.101 -589.238 296.502" stroke="#DAE2EB" stroke-miterlimit="10"/>
</svg>
