<svg width="144" height="50" viewBox="0 0 144 50" fill="none" xmlns="http://www.w3.org/2000/svg">
	<g clip-path="url(#clip0_1725_28811)">
		<path d="M144.141 49.9565H-0.0239258V0.16415H144.141V49.9565Z" fill="#2DB88D" />
		<path
			d="M58.2805 7.87499H59.1434V9.28036H59.1715C59.4918 8.39222 60.2923 7.79132 61.357 7.79132C62.443 7.79132 63.2364 8.4204 63.522 9.37119H63.5429C63.8975 8.44143 64.7885 7.79132 65.9164 7.79132C67.378 7.79132 68.3385 8.76985 68.3385 10.2938V15.4043H67.4128V10.5036C67.4128 9.32913 66.7655 8.61593 65.6656 8.61593C64.5452 8.61593 63.7657 9.48304 63.7657 10.6992V15.4043H62.8466V10.4128C62.8466 9.33629 62.1437 8.61593 61.1133 8.61593C59.9996 8.61593 59.1995 9.51794 59.1995 10.811V15.4043H58.2805V7.87499Z"
			fill="white" />
		<path
			d="M74.7145 12.5733V11.7416L72.5218 11.895C71.262 11.9792 70.5938 12.4686 70.5938 13.3143C70.5938 14.1255 71.3039 14.6776 72.3481 14.6776C73.6912 14.6776 74.7145 13.7617 74.7145 12.5733ZM69.6543 13.3076C69.6543 12.0212 70.6147 11.2731 72.4105 11.1469L74.7145 10.9935V10.3501C74.7145 9.25253 74.0253 8.61629 72.8141 8.61629C71.7703 8.61629 71.0393 9.15454 70.8722 10.0494H69.9884C70.0646 8.72814 71.2482 7.79123 72.8212 7.79123C74.5403 7.79123 75.6335 8.75633 75.6335 10.2731V15.4047H74.7563V13.9644H74.7354C74.3318 14.8803 73.3152 15.4888 72.1668 15.4888C70.6704 15.4888 69.6543 14.6078 69.6543 13.3076Z"
			fill="white" />
		<path
			d="M78.5707 6.07183V7.87541H80.0741V8.6517H78.5707V13.5175C78.5707 14.3005 78.8767 14.636 79.573 14.636C79.6705 14.636 80.0532 14.615 80.1089 14.6079V15.398C80.0113 15.4257 79.5868 15.4468 79.3921 15.4468C78.1533 15.4468 77.6516 14.9085 77.6516 13.5524V8.6517H76.5798V7.87541H77.6516V6.07183H78.5707Z"
			fill="white" />
		<path
			d="M81.7375 11.1125H86.4011C86.3873 9.61629 85.4683 8.60957 84.1109 8.60957C82.7678 8.60957 81.8208 9.61629 81.7375 11.1125ZM87.264 13.2727C87.0413 14.559 85.8095 15.4888 84.1804 15.4888C82.1063 15.4888 80.7837 14.0279 80.7837 11.6579C80.7837 9.32277 82.1063 7.79168 84.1248 7.79168C86.0947 7.79168 87.3616 9.22479 87.3616 11.4619V11.8673H81.7375V11.9165C81.7375 13.6221 82.7122 14.6709 84.2014 14.6709C85.3293 14.6709 86.1294 14.0977 86.3521 13.2727H87.264Z"
			fill="white" />
		<path
			d="M88.6426 7.87499H89.5055V9.21011H89.5335C89.791 8.31526 90.5011 7.79132 91.4339 7.79132C91.6286 7.79132 91.8723 7.83293 91.9908 7.86783V8.79087C91.8723 8.73495 91.5658 8.67902 91.3083 8.67902C90.2436 8.67902 89.5616 9.51794 89.5616 10.7345V15.4043H88.6426V7.87499Z"
			fill="white" />
		<path
			d="M93.1251 7.87499H94.0441V15.4043H93.1251V7.87499ZM92.958 5.76358C92.958 5.41414 93.2436 5.1345 93.5843 5.1345C93.9256 5.1345 94.204 5.41414 94.204 5.76358C94.204 6.09915 93.9256 6.38595 93.5843 6.38595C93.2436 6.38595 92.958 6.09915 92.958 5.76358Z"
			fill="white" />
		<path
			d="M100.531 12.5733V11.7416L98.3387 11.895C97.0789 11.9792 96.4107 12.4686 96.4107 13.3143C96.4107 14.1255 97.1208 14.6776 98.165 14.6776C99.5081 14.6776 100.531 13.7617 100.531 12.5733ZM95.4712 13.3076C95.4712 12.0212 96.4316 11.2731 98.2273 11.1469L100.531 10.9935V10.3501C100.531 9.25253 99.8422 8.61629 98.631 8.61629C97.5872 8.61629 96.8562 9.15454 96.6891 10.0494H95.8053C95.8815 8.72814 97.0651 7.79123 98.6381 7.79123C100.357 7.79123 101.45 8.75633 101.45 10.2731V15.4047H100.573V13.9644H100.552C100.149 14.8803 99.1321 15.4888 97.9837 15.4888C96.4873 15.4888 95.4712 14.6078 95.4712 13.3076Z"
			fill="white" />
		<path d="M103.135 4.87588H104.053V15.4043H103.135V4.87588Z" fill="white" />
		<path
			d="M108.32 7.79168C109.837 7.79168 110.937 8.7004 111.014 9.99392H110.129C110.039 9.14112 109.35 8.57468 108.292 8.57468C107.289 8.57468 106.538 9.0919 106.538 9.85387C106.538 10.4691 106.983 10.8257 107.937 11.0633L109.086 11.3429C110.589 11.7205 111.16 12.266 111.16 13.3357C111.16 14.6078 109.956 15.4888 108.271 15.4888C106.663 15.4888 105.508 14.5662 105.403 13.2865H106.336C106.448 14.1465 107.192 14.7129 108.327 14.7129C109.447 14.7129 110.227 14.1957 110.227 13.3984C110.227 12.7621 109.844 12.4127 108.828 12.1613L107.561 11.8396C106.267 11.5111 105.626 10.8955 105.626 9.90309C105.626 8.65834 106.774 7.79168 108.32 7.79168Z"
			fill="white" />
		<path
			d="M58.3499 20.8511H59.2689V28.3804H58.3499V20.8511ZM58.1829 18.7397C58.1829 18.3902 58.4684 18.1106 58.8097 18.1106C59.1504 18.1106 59.4289 18.3902 59.4289 18.7397C59.4289 19.0752 59.1504 19.362 58.8097 19.362C58.4684 19.362 58.1829 19.0752 58.1829 18.7397Z"
			fill="white" />
		<path
			d="M60.9949 20.8511H61.8578V22.2564H61.8858C62.3037 21.3195 63.1942 20.7674 64.4054 20.7674C66.055 20.7674 67.113 21.83 67.113 23.5356V28.3804H66.1945V23.6824C66.1945 22.354 65.422 21.592 64.1479 21.592C62.8115 21.592 61.9139 22.5499 61.9139 23.9549V28.3804H60.9949V20.8511Z"
			fill="white" />
		<path
			d="M68.7285 20.8511H69.5914V22.2564H69.6195C70.0373 21.3195 70.9278 20.7674 72.1391 20.7674C73.7887 20.7674 74.8467 21.83 74.8467 23.5356V28.3804H73.9281V23.6824C73.9281 22.354 73.1557 21.592 71.8816 21.592C70.5452 21.592 69.6475 22.5499 69.6475 23.9549V28.3804H68.7285V20.8511Z"
			fill="white" />
		<path
			d="M81.9606 24.6125C81.9606 22.7319 81.014 21.5923 79.4896 21.5923C77.9723 21.5923 77.0256 22.7391 77.0256 24.6125C77.0256 26.493 77.9723 27.6326 79.4896 27.6326C81.014 27.6326 81.9606 26.493 81.9606 24.6125ZM76.0857 24.6125C76.0857 22.2635 77.4292 20.7673 79.4896 20.7673C81.5499 20.7673 82.9001 22.2635 82.9001 24.6125C82.9001 26.9614 81.5499 28.4644 79.4896 28.4644C77.4292 28.4644 76.0857 26.9614 76.0857 24.6125Z"
			fill="white" />
		<path
			d="M87.0972 28.3804H86.1225L83.3245 20.8511H84.292L86.596 27.3947H86.617L88.9277 20.8511H89.8885L87.0972 28.3804Z"
			fill="white" />
		<path
			d="M95.3456 25.5489V24.7172L93.1529 24.8706C91.8931 24.9547 91.2249 25.4442 91.2249 26.2899C91.2249 27.101 91.935 27.6532 92.9792 27.6532C94.3223 27.6532 95.3456 26.7373 95.3456 25.5489ZM90.2854 26.2831C90.2854 24.9968 91.2458 24.2487 93.0416 24.1225L95.3456 23.9691V23.3257C95.3456 22.2281 94.6564 21.5919 93.4452 21.5919C92.4014 21.5919 91.6704 22.1301 91.5033 23.025H90.6195C90.6957 21.7037 91.8793 20.7668 93.4523 20.7668C95.1714 20.7668 96.2646 21.7319 96.2646 23.2487V28.3802H95.3874V26.94H95.3665C94.9629 27.8559 93.9463 28.4644 92.7979 28.4644C91.3015 28.4644 90.2854 27.5834 90.2854 26.2831Z"
			fill="white" />
		<path
			d="M99.2018 19.0474V20.851H100.705V21.6273H99.2018V26.4931C99.2018 27.2761 99.5078 27.6116 100.204 27.6116C100.302 27.6116 100.684 27.5906 100.74 27.5834V28.3736C100.642 28.4013 100.218 28.4224 100.023 28.4224C98.7844 28.4224 98.2828 27.8841 98.2828 26.528V21.6273H97.2109V20.851H98.2828V19.0474H99.2018Z"
			fill="white" />
		<path
			d="M102.111 20.8511H103.03V28.3804H102.111V20.8511ZM101.944 18.7397C101.944 18.3902 102.229 18.1106 102.571 18.1106C102.912 18.1106 103.19 18.3902 103.19 18.7397C103.19 19.0752 102.912 19.362 102.571 19.362C102.229 19.362 101.944 19.0752 101.944 18.7397Z"
			fill="white" />
		<path
			d="M110.255 24.6125C110.255 22.7319 109.309 21.5923 107.784 21.5923C106.267 21.5923 105.32 22.7391 105.32 24.6125C105.32 26.493 106.267 27.6326 107.784 27.6326C109.309 27.6326 110.255 26.493 110.255 24.6125ZM104.38 24.6125C104.38 22.2635 105.724 20.7673 107.784 20.7673C109.845 20.7673 111.195 22.2635 111.195 24.6125C111.195 26.9614 109.845 28.4644 107.784 28.4644C105.724 28.4644 104.38 26.9614 104.38 24.6125Z"
			fill="white" />
		<path
			d="M112.475 20.8511H113.338V22.2564H113.366C113.784 21.3195 114.675 20.7674 115.886 20.7674C117.535 20.7674 118.594 21.83 118.594 23.5356V28.3804H117.675V23.6824C117.675 22.354 116.902 21.592 115.628 21.592C114.292 21.592 113.394 22.5499 113.394 23.9549V28.3804H112.475V20.8511Z"
			fill="white" />
		<path
			d="M59.6031 32.0225V33.8261H61.1066V34.6024H59.6031V39.4682C59.6031 40.2512 59.9092 40.5867 60.6055 40.5867C60.703 40.5867 61.0857 40.5657 61.1414 40.5585V41.3487C61.0438 41.3764 60.6193 41.3975 60.4246 41.3975C59.1857 41.3975 58.6841 40.8592 58.6841 39.5031V34.6024H57.6123V33.8261H58.6841V32.0225H59.6031Z"
			fill="white" />
		<path
			d="M62.7702 37.0632H67.4339C67.42 35.567 66.501 34.5603 65.1437 34.5603C63.8006 34.5603 62.8535 35.567 62.7702 37.0632ZM68.2967 39.2233C68.074 40.5097 66.8423 41.4395 65.2132 41.4395C63.139 41.4395 61.8164 39.9786 61.8164 37.6086C61.8164 35.2735 63.139 33.7424 65.1575 33.7424C67.1274 33.7424 68.3943 35.1755 68.3943 37.4126V37.818H62.7702V37.8672C62.7702 39.5728 63.7449 40.6216 65.2341 40.6216C66.362 40.6216 67.1621 40.0484 67.3849 39.2233H68.2967Z"
			fill="white" />
		<path
			d="M74.8399 36.1961C74.659 35.273 73.8723 34.567 72.6753 34.567C71.2066 34.567 70.239 35.7558 70.239 37.5871C70.239 39.4538 71.2133 40.6072 72.682 40.6072C73.8304 40.6072 74.631 40.0202 74.847 39.0345H75.7589C75.5429 40.4538 74.3387 41.4395 72.682 41.4395C70.6426 41.4395 69.2991 39.9643 69.2991 37.5871C69.2991 35.2591 70.6355 33.7424 72.6682 33.7424C74.4225 33.7424 75.5709 34.8676 75.7518 36.1961H74.8399Z"
			fill="white" />
		<path
			d="M77.0254 30.8275H77.9444V35.232H77.9649C78.3828 34.2951 79.2875 33.743 80.4916 33.743C82.1346 33.743 83.2482 34.8472 83.2482 36.5322V41.356H82.3225V36.679C82.3225 35.3649 81.5149 34.5676 80.2342 34.5676C78.8768 34.5676 77.9444 35.5327 77.9444 36.9658V41.356H77.0254V30.8275Z"
			fill="white" />
		<path
			d="M84.863 33.8267H85.7259V35.232H85.754C86.1718 34.2951 87.0624 33.743 88.2736 33.743C89.9232 33.743 90.9812 34.8056 90.9812 36.5112V41.356H90.0626V36.658C90.0626 35.3296 89.2902 34.5676 88.0161 34.5676C86.6797 34.5676 85.7821 35.5255 85.7821 36.9305V41.356H84.863V33.8267Z"
			fill="white" />
		<path
			d="M98.0947 37.5876C98.0947 35.707 97.148 34.5674 95.6236 34.5674C94.1063 34.5674 93.1597 35.7142 93.1597 37.5876C93.1597 39.4681 94.1063 40.6077 95.6236 40.6077C97.148 40.6077 98.0947 39.4681 98.0947 37.5876ZM92.2197 37.5876C92.2197 35.2386 93.5633 33.7424 95.6236 33.7424C97.6839 33.7424 99.0342 35.2386 99.0342 37.5876C99.0342 39.9365 97.6839 41.4395 95.6236 41.4395C93.5633 41.4395 92.2197 39.9365 92.2197 37.5876Z"
			fill="white" />
		<path d="M100.385 30.8275H101.303V41.356H100.385V30.8275Z" fill="white" />
		<path
			d="M108.529 37.5876C108.529 35.707 107.582 34.5674 106.058 34.5674C104.54 34.5674 103.594 35.7142 103.594 37.5876C103.594 39.4681 104.54 40.6077 106.058 40.6077C107.582 40.6077 108.529 39.4681 108.529 37.5876ZM102.654 37.5876C102.654 35.2386 103.997 33.7424 106.058 33.7424C108.118 33.7424 109.468 35.2386 109.468 37.5876C109.468 39.9365 108.118 41.4395 106.058 41.4395C103.997 41.4395 102.654 39.9365 102.654 37.5876Z"
			fill="white" />
		<path
			d="M116.137 37.5735C116.137 35.791 115.148 34.5672 113.701 34.5672C112.267 34.5672 111.313 35.7699 111.313 37.5735C111.313 39.3704 112.267 40.5587 113.701 40.5587C115.148 40.5587 116.137 39.3422 116.137 37.5735ZM110.743 42.0478H111.703C111.884 42.7189 112.698 43.1664 113.819 43.1664C115.211 43.1664 116.137 42.4464 116.137 41.2858V39.7547H116.116C115.699 40.7265 114.738 41.3905 113.541 41.3905C111.654 41.3905 110.373 39.8527 110.373 37.5735C110.373 35.2733 111.654 33.7422 113.562 33.7422C114.759 33.7422 115.726 34.3995 116.164 35.3851H116.179V33.8263H117.056V41.216C117.056 42.9426 115.768 43.9775 113.763 43.9775C112.107 43.9775 110.93 43.2013 110.743 42.0478Z"
			fill="white" />
		<path
			d="M118.782 33.8266H119.701V41.356H118.782V33.8266ZM118.615 31.7152C118.615 31.3658 118.9 31.0862 119.241 31.0862C119.583 31.0862 119.861 31.3658 119.861 31.7152C119.861 32.0508 119.583 32.3376 119.241 32.3376C118.9 32.3376 118.615 32.0508 118.615 31.7152Z"
			fill="white" />
		<path
			d="M122.005 37.0632H126.668C126.654 35.567 125.735 34.5603 124.378 34.5603C123.035 34.5603 122.088 35.567 122.005 37.0632ZM127.531 39.2233C127.308 40.5097 126.077 41.4395 124.448 41.4395C122.373 41.4395 121.051 39.9786 121.051 37.6086C121.051 35.2735 122.373 33.7424 124.392 33.7424C126.362 33.7424 127.629 35.1755 127.629 37.4126V37.818H122.005V37.8672C122.005 39.5728 122.979 40.6216 124.468 40.6216C125.596 40.6216 126.396 40.0484 126.619 39.2233H127.531Z"
			fill="white" />
		<path
			d="M131.45 33.7424C132.967 33.7424 134.067 34.6511 134.144 35.9446H133.259C133.169 35.0918 132.48 34.5254 131.422 34.5254C130.419 34.5254 129.668 35.0426 129.668 35.8046C129.668 36.4198 130.113 36.7764 131.067 37.014L132.216 37.2936C133.719 37.6712 134.29 38.2166 134.29 39.2864C134.29 40.5585 133.086 41.4395 131.401 41.4395C129.793 41.4395 128.638 40.5169 128.533 39.2372H129.466C129.577 40.0972 130.322 40.6636 131.457 40.6636C132.577 40.6636 133.357 40.1464 133.357 39.3491C133.357 38.7128 132.974 38.3634 131.958 38.1119L130.691 37.7902C129.397 37.4618 128.756 36.8462 128.756 35.8538C128.756 34.609 129.904 33.7424 131.45 33.7424Z"
			fill="white" />
		<path d="M51.5795 49.9795H-0.0239258V0.164276H51.5795V49.9795Z" fill="#373535" />
		<path d="M38.1275 15.4043H13.302V7.61683H38.1275V15.4043Z" fill="#2DB88D" />
		<path
			d="M40.9672 18.5051V18.4057H11.6433H9.30591V42.6536H17.0594V25.6415H21.957V42.7529H29.7105V25.6415H34.3697V42.7529H42.1236V18.5051H40.9672Z"
			fill="white" />
	</g>
	<defs>
		<clipPath id="clip0_1725_28811">
			<rect width="144" height="50" fill="white" />
		</clipPath>
	</defs>
</svg>
	