<svg width="64" height="58" viewBox="0 0 64 58" fill="none" xmlns="http://www.w3.org/2000/svg">
	<g opacity="0.6" filter="url(#filter0_f_1185_15237)">
		<g filter="url(#filter1_iiii_1185_15237)">
			<path fill-rule="evenodd" clip-rule="evenodd"
				d="M25.1927 12.272H17.2046C15.0813 12.272 13.36 13.9933 13.36 16.1166V19.9613C13.36 19.9613 13.3599 19.9613 13.3599 19.9613C13.3599 19.9613 13.3599 19.9613 13.3599 19.9614V42.8718C13.3599 45.0809 15.1507 46.8718 17.3599 46.8718H43.959C46.1682 46.8718 47.959 45.0809 47.959 42.8718V23.9613C47.959 21.7522 46.1682 19.9613 43.959 19.9613H32.882C32.7162 19.9613 32.5817 19.8269 32.5817 19.661C32.5817 15.5802 29.2735 12.272 25.1927 12.272Z"
				fill="#BBCBD0" fill-opacity="0.5" />
		</g>
		<g filter="url(#filter2_f_1185_15237)">
			<path fill-rule="evenodd" clip-rule="evenodd"
				d="M29.5143 13.4272H23.5122C21.3031 13.4272 19.5122 15.2181 19.5122 17.4272V21.1166V24.9603V44.0271C19.5122 46.2362 21.3031 48.0271 23.5122 48.0271H50.1114C52.3205 48.0271 54.1114 46.2362 54.1114 44.0271V25.1166C54.1114 22.9075 52.3205 21.1166 50.1114 21.1166H37.2036C37.0378 21.1166 36.9033 20.9822 36.9033 20.8163C36.9033 16.7354 33.5951 13.4272 29.5143 13.4272Z"
				fill="url(#paint0_linear_1185_15237)" fill-opacity="0.9" />
		</g>
	</g>
	<g filter="url(#filter3_f_1185_15237)">
		<path
			d="M9.38916 44.1316V25.9784C9.38916 24.3942 10.6735 23.1099 12.2577 23.1099H15.7674C17.3517 23.1099 18.636 24.3942 18.636 25.9784V44.1316C18.636 45.7158 17.3517 47.0001 15.7674 47.0001H12.2577C10.6735 47.0001 9.38916 45.7158 9.38916 44.1316Z"
			fill="#BBCBD0" fill-opacity="0.5" />
		<path
			d="M21.9728 24.289V44.1316C21.9728 45.7158 23.2571 47.0001 24.8413 47.0001H47.1557C48.74 47.0001 50.0243 45.7158 50.0243 44.1316V25.9784C50.0243 24.3942 48.74 23.1099 47.1558 23.1099H39.6011C37.5599 23.1099 36.1718 21.0382 36.9481 19.1504L39.3787 13.2395C39.9195 11.9244 39.3975 10.4124 38.1605 9.71103C37.0515 9.08222 35.6586 9.27496 34.762 10.1813L22.802 22.2716C22.2707 22.8086 21.9728 23.5336 21.9728 24.289Z"
			fill="#BBCBD0" fill-opacity="0.5" />
	</g>
	<g filter="url(#filter4_iiii_1185_15237)">
		<path
			d="M5 42.486V24.3329C5 22.7486 6.28429 21.4644 7.86855 21.4644H11.3783C12.9625 21.4644 14.2468 22.7486 14.2468 24.3329V42.486C14.2468 44.0703 12.9625 45.3546 11.3783 45.3546H7.86855C6.28429 45.3546 5 44.0703 5 42.486Z"
			fill="#EFF3F6" />
		<path
			d="M17.5836 22.6435V42.486C17.5836 44.0703 18.8679 45.3546 20.4522 45.3546H42.7666C44.3508 45.3546 45.6351 44.0703 45.6351 42.486V24.3329C45.6351 22.7486 44.3508 21.4644 42.7666 21.4644H35.2119C33.1707 21.4644 31.7826 19.3927 32.5589 17.5048L34.9896 11.594C35.5304 10.2789 35.0083 8.76687 33.7714 8.06552C32.6624 7.43671 31.2695 7.62945 30.3729 8.53581L18.4128 20.6261C17.8816 21.1631 17.5836 21.8881 17.5836 22.6435Z"
			fill="#EFF3F6" />
	</g>
	<g filter="url(#filter5_f_1185_15237)">
		<path
			d="M7 41.6404V24.4644C7 22.9654 8.21516 21.7503 9.71415 21.7503H13.035C14.5339 21.7503 15.7491 22.9654 15.7491 24.4644V41.6404C15.7491 43.1394 14.5339 44.3546 13.035 44.3546H9.71415C8.21517 44.3546 7 43.1394 7 41.6404Z"
			fill="url(#paint1_linear_1185_15237)" fill-opacity="0.9" />
		<path
			d="M18.9063 22.8659V41.6404C18.9063 43.1394 20.1214 44.3546 21.6204 44.3546H42.7338C44.2328 44.3546 45.4479 43.1394 45.4479 41.6404V24.4644C45.4479 22.9654 44.2328 21.7503 42.7338 21.7503H35.5857C33.6544 21.7503 32.341 19.7901 33.0756 18.0039L35.3754 12.4112C35.887 11.1669 35.3931 9.73622 34.2227 9.07262C33.1734 8.47765 31.8555 8.66003 31.0072 9.5176L19.6909 20.9571C19.1882 21.4653 18.9063 22.1511 18.9063 22.8659Z"
			fill="url(#paint2_linear_1185_15237)" fill-opacity="0.9" />
	</g>
	<defs>
		<filter id="filter0_f_1185_15237" x="4.00662" y="2.91873" width="59.458" height="54.4616"
			filterUnits="userSpaceOnUse" color-interpolation-filters="sRGB">
			<feFlood flood-opacity="0" result="BackgroundImageFix" />
			<feBlend mode="normal" in="SourceGraphic" in2="BackgroundImageFix" result="shape" />
			<feGaussianBlur stdDeviation="4.67662" result="effect1_foregroundBlur_1185_15237" />
		</filter>
		<filter id="filter1_iiii_1185_15237" x="11.0216" y="11.1028" width="38.1066" height="38.1073"
			filterUnits="userSpaceOnUse" color-interpolation-filters="sRGB">
			<feFlood flood-opacity="0" result="BackgroundImageFix" />
			<feBlend mode="normal" in="SourceGraphic" in2="BackgroundImageFix" result="shape" />
			<feColorMatrix in="SourceAlpha" type="matrix"
				values="0 0 0 0 0 0 0 0 0 0 0 0 0 0 0 0 0 0 127 0" result="hardAlpha" />
			<feOffset dx="-2.33831" dy="-1.16916" />
			<feGaussianBlur stdDeviation="1.16916" />
			<feComposite in2="hardAlpha" operator="arithmetic" k2="-1" k3="1" />
			<feColorMatrix type="matrix" values="0 0 0 0 0 0 0 0 0 0 0 0 0 0 0 0 0 0 0.3 0" />
			<feBlend mode="normal" in2="shape" result="effect1_innerShadow_1185_15237" />
			<feColorMatrix in="SourceAlpha" type="matrix"
				values="0 0 0 0 0 0 0 0 0 0 0 0 0 0 0 0 0 0 127 0" result="hardAlpha" />
			<feOffset dx="-0.280597" dy="-0.140299" />
			<feGaussianBlur stdDeviation="0.350747" />
			<feComposite in2="hardAlpha" operator="arithmetic" k2="-1" k3="1" />
			<feColorMatrix type="matrix" values="0 0 0 0 0 0 0 0 0 0 0 0 0 0 0 0 0 0 0.35 0" />
			<feBlend mode="normal" in2="effect1_innerShadow_1185_15237"
				result="effect2_innerShadow_1185_15237" />
			<feColorMatrix in="SourceAlpha" type="matrix"
				values="0 0 0 0 0 0 0 0 0 0 0 0 0 0 0 0 0 0 127 0" result="hardAlpha" />
			<feOffset dx="1.16916" dy="2.33831" />
			<feGaussianBlur stdDeviation="1.16916" />
			<feComposite in2="hardAlpha" operator="arithmetic" k2="-1" k3="1" />
			<feColorMatrix type="matrix" values="0 0 0 0 1 0 0 0 0 1 0 0 0 0 1 0 0 0 0.5 0" />
			<feBlend mode="normal" in2="effect2_innerShadow_1185_15237"
				result="effect3_innerShadow_1185_15237" />
			<feColorMatrix in="SourceAlpha" type="matrix"
				values="0 0 0 0 0 0 0 0 0 0 0 0 0 0 0 0 0 0 127 0" result="hardAlpha" />
			<feOffset dx="0.187065" dy="0.187065" />
			<feGaussianBlur stdDeviation="0.350747" />
			<feComposite in2="hardAlpha" operator="arithmetic" k2="-1" k3="1" />
			<feColorMatrix type="matrix" values="0 0 0 0 1 0 0 0 0 1 0 0 0 0 1 0 0 0 0.7 0" />
			<feBlend mode="normal" in2="effect3_innerShadow_1185_15237"
				result="effect4_innerShadow_1185_15237" />
		</filter>
		<filter id="filter2_f_1185_15237" x="17.1739" y="11.0889" width="39.2757" height="39.2765"
			filterUnits="userSpaceOnUse" color-interpolation-filters="sRGB">
			<feFlood flood-opacity="0" result="BackgroundImageFix" />
			<feBlend mode="normal" in="SourceGraphic" in2="BackgroundImageFix" result="shape" />
			<feGaussianBlur stdDeviation="1.16916" result="effect1_foregroundBlur_1185_15237" />
		</filter>
		<filter id="filter3_f_1185_15237" x="0.231337" y="0.185926" width="58.9509" height="55.9719"
			filterUnits="userSpaceOnUse" color-interpolation-filters="sRGB">
			<feFlood flood-opacity="0" result="BackgroundImageFix" />
			<feBlend mode="normal" in="SourceGraphic" in2="BackgroundImageFix" result="shape" />
			<feGaussianBlur stdDeviation="4.57891" result="effect1_foregroundBlur_1185_15237" />
		</filter>
		<filter id="filter4_iiii_1185_15237" x="2.71054" y="6.55351" width="44.0694" height="39.8541"
			filterUnits="userSpaceOnUse" color-interpolation-filters="sRGB">
			<feFlood flood-opacity="0" result="BackgroundImageFix" />
			<feBlend mode="normal" in="SourceGraphic" in2="BackgroundImageFix" result="shape" />
			<feColorMatrix in="SourceAlpha" type="matrix"
				values="0 0 0 0 0 0 0 0 0 0 0 0 0 0 0 0 0 0 127 0" result="hardAlpha" />
			<feOffset dx="-2.28946" dy="-1.14473" />
			<feGaussianBlur stdDeviation="1.14473" />
			<feComposite in2="hardAlpha" operator="arithmetic" k2="-1" k3="1" />
			<feColorMatrix type="matrix"
				values="0 0 0 0 0.521569 0 0 0 0 0.584314 0 0 0 0 0.603922 0 0 0 0.2 0" />
			<feBlend mode="normal" in2="shape" result="effect1_innerShadow_1185_15237" />
			<feColorMatrix in="SourceAlpha" type="matrix"
				values="0 0 0 0 0 0 0 0 0 0 0 0 0 0 0 0 0 0 127 0" result="hardAlpha" />
			<feOffset dx="-0.274735" dy="-0.137367" />
			<feGaussianBlur stdDeviation="0.343418" />
			<feComposite in2="hardAlpha" operator="arithmetic" k2="-1" k3="1" />
			<feColorMatrix type="matrix"
				values="0 0 0 0 0.521094 0 0 0 0 0.584387 0 0 0 0 0.604167 0 0 0 0.2 0" />
			<feBlend mode="normal" in2="effect1_innerShadow_1185_15237"
				result="effect2_innerShadow_1185_15237" />
			<feColorMatrix in="SourceAlpha" type="matrix"
				values="0 0 0 0 0 0 0 0 0 0 0 0 0 0 0 0 0 0 127 0" result="hardAlpha" />
			<feOffset dx="1.14473" dy="1.05315" />
			<feGaussianBlur stdDeviation="1.14473" />
			<feComposite in2="hardAlpha" operator="arithmetic" k2="-1" k3="1" />
			<feColorMatrix type="matrix" values="0 0 0 0 1 0 0 0 0 1 0 0 0 0 1 0 0 0 0.5 0" />
			<feBlend mode="normal" in2="effect2_innerShadow_1185_15237"
				result="effect3_innerShadow_1185_15237" />
			<feColorMatrix in="SourceAlpha" type="matrix"
				values="0 0 0 0 0 0 0 0 0 0 0 0 0 0 0 0 0 0 127 0" result="hardAlpha" />
			<feOffset dx="0.183156" dy="0.183156" />
			<feGaussianBlur stdDeviation="0.343418" />
			<feComposite in2="hardAlpha" operator="arithmetic" k2="-1" k3="1" />
			<feColorMatrix type="matrix" values="0 0 0 0 1 0 0 0 0 1 0 0 0 0 1 0 0 0 0.7 0" />
			<feBlend mode="normal" in2="effect3_innerShadow_1185_15237"
				result="effect4_innerShadow_1185_15237" />
		</filter>
		<filter id="filter5_f_1185_15237" x="4.95199" y="6.67708" width="42.5438" height="39.7254"
			filterUnits="userSpaceOnUse" color-interpolation-filters="sRGB">
			<feFlood flood-opacity="0" result="BackgroundImageFix" />
			<feBlend mode="normal" in="SourceGraphic" in2="BackgroundImageFix" result="shape" />
			<feGaussianBlur stdDeviation="1.02401" result="effect1_foregroundBlur_1185_15237" />
		</filter>
		<linearGradient id="paint0_linear_1185_15237" x1="18.7342" y1="15.9673" x2="42.1211"
			y2="36.3332" gradientUnits="userSpaceOnUse">
			<stop stop-color="white" />
			<stop offset="1" stop-color="white" stop-opacity="0" />
		</linearGradient>
		<linearGradient id="paint1_linear_1185_15237" x1="11.6253" y1="10.5202" x2="25.2518"
			y2="27.5774" gradientUnits="userSpaceOnUse">
			<stop stop-color="white" />
			<stop offset="1" stop-color="white" stop-opacity="0" />
		</linearGradient>
		<linearGradient id="paint2_linear_1185_15237" x1="11.6253" y1="10.5202" x2="25.2518"
			y2="27.5774" gradientUnits="userSpaceOnUse">
			<stop stop-color="white" />
			<stop offset="1" stop-color="white" stop-opacity="0" />
		</linearGradient>
	</defs>
</svg>	