<svg width="55" height="56" viewBox="0 0 55 56" fill="none" xmlns="http://www.w3.org/2000/svg">
	<g opacity="0.6" filter="url(#filter0_f_1185_15175)">
		<g filter="url(#filter1_iiii_1185_15175)">
			<path fill-rule="evenodd" clip-rule="evenodd"
				d="M21.6805 9.84473H13.6924C11.5691 9.84473 9.84775 11.566 9.84775 13.6894V17.534C9.84775 17.5341 9.84773 17.5341 9.84771 17.5341C9.84768 17.5341 9.84766 17.5341 9.84766 17.5341V40.4445C9.84766 42.6537 11.6385 44.4445 13.8477 44.4445H40.4468C42.656 44.4445 44.4468 42.6537 44.4468 40.4445V21.5341C44.4468 19.3249 42.656 17.5341 40.4468 17.5341H29.3698C29.204 17.5341 29.0695 17.3996 29.0695 17.2338C29.0695 13.1529 25.7613 9.84473 21.6805 9.84473Z"
				fill="#BBCBD0" fill-opacity="0.5" />
		</g>
		<g filter="url(#filter2_f_1185_15175)">
			<path fill-rule="evenodd" clip-rule="evenodd"
				d="M20.9459 11.4006H14.9438C12.7347 11.4006 10.9438 13.1915 10.9438 15.4006V19.09V22.9337V42.0005C10.9438 44.2096 12.7347 46.0005 14.9438 46.0005H41.543C43.7522 46.0005 45.543 44.2096 45.543 42.0005V23.09C45.543 20.8809 43.7522 19.09 41.543 19.09H28.6353C28.4694 19.09 28.335 18.9556 28.335 18.7897C28.335 14.7088 25.0268 11.4006 20.9459 11.4006Z"
				fill="url(#paint0_linear_1185_15175)" fill-opacity="0.9" />
		</g>
	</g>
	<g filter="url(#filter3_iiii_1185_15175)">
		<path fill-rule="evenodd" clip-rule="evenodd"
			d="M10 6C7.79086 6 6 7.79086 6 10V13.5331C6 13.5849 6.00099 13.6365 6.00294 13.6879C6.00297 13.6887 6.0023 13.6894 6.00147 13.6894V13.6894C6.00066 13.6894 6 13.69 6 13.6909V36.5998C6 38.809 7.79086 40.5998 10 40.5998H36.5992C38.8083 40.5998 40.5992 38.809 40.5992 36.5998V17.6894C40.5992 15.4802 38.8083 13.6894 36.5992 13.6894H25.3751C25.2898 13.6894 25.2218 13.6184 25.2218 13.5331V13.5331V10C25.2218 7.79086 23.4309 6 21.2218 6H10Z"
			fill="#EFF3F6" />
	</g>
	<g filter="url(#filter4_f_1185_15175)">
		<path fill-rule="evenodd" clip-rule="evenodd"
			d="M11.0986 7.55591C8.88949 7.55591 7.09863 9.34677 7.09863 11.5559V15.089C7.09863 15.1408 7.09962 15.1924 7.10157 15.2438C7.1016 15.2446 7.10094 15.2453 7.1001 15.2453V15.2453C7.09929 15.2453 7.09863 15.2459 7.09863 15.2468V38.1558C7.09863 40.3649 8.8895 42.1558 11.0986 42.1558H37.6978C39.9069 42.1558 41.6978 40.3649 41.6978 38.1558V19.2453C41.6978 17.0362 39.9069 15.2453 37.6978 15.2453H24.6431C24.5577 15.2453 24.4897 15.1743 24.4897 15.089V15.089V11.5559C24.4897 9.34677 22.6989 7.55591 20.4897 7.55591H11.0986Z"
			fill="url(#paint1_linear_1185_15175)" fill-opacity="0.9" />
	</g>
	<defs>
		<filter id="filter0_f_1185_15175" x="0.494409" y="0.491479" width="54.4018" height="54.8623"
			filterUnits="userSpaceOnUse" color-interpolation-filters="sRGB">
			<feFlood flood-opacity="0" result="BackgroundImageFix" />
			<feBlend mode="normal" in="SourceGraphic" in2="BackgroundImageFix" result="shape" />
			<feGaussianBlur stdDeviation="4.67662" result="effect1_foregroundBlur_1185_15175" />
		</filter>
		<filter id="filter1_iiii_1185_15175" x="7.50934" y="8.67557" width="38.1066" height="38.1073"
			filterUnits="userSpaceOnUse" color-interpolation-filters="sRGB">
			<feFlood flood-opacity="0" result="BackgroundImageFix" />
			<feBlend mode="normal" in="SourceGraphic" in2="BackgroundImageFix" result="shape" />
			<feColorMatrix in="SourceAlpha" type="matrix"
				values="0 0 0 0 0 0 0 0 0 0 0 0 0 0 0 0 0 0 127 0" result="hardAlpha" />
			<feOffset dx="-2.33831" dy="-1.16916" />
			<feGaussianBlur stdDeviation="1.16916" />
			<feComposite in2="hardAlpha" operator="arithmetic" k2="-1" k3="1" />
			<feColorMatrix type="matrix" values="0 0 0 0 0 0 0 0 0 0 0 0 0 0 0 0 0 0 0.3 0" />
			<feBlend mode="normal" in2="shape" result="effect1_innerShadow_1185_15175" />
			<feColorMatrix in="SourceAlpha" type="matrix"
				values="0 0 0 0 0 0 0 0 0 0 0 0 0 0 0 0 0 0 127 0" result="hardAlpha" />
			<feOffset dx="-0.280597" dy="-0.140299" />
			<feGaussianBlur stdDeviation="0.350747" />
			<feComposite in2="hardAlpha" operator="arithmetic" k2="-1" k3="1" />
			<feColorMatrix type="matrix" values="0 0 0 0 0 0 0 0 0 0 0 0 0 0 0 0 0 0 0.35 0" />
			<feBlend mode="normal" in2="effect1_innerShadow_1185_15175"
				result="effect2_innerShadow_1185_15175" />
			<feColorMatrix in="SourceAlpha" type="matrix"
				values="0 0 0 0 0 0 0 0 0 0 0 0 0 0 0 0 0 0 127 0" result="hardAlpha" />
			<feOffset dx="1.16916" dy="2.33831" />
			<feGaussianBlur stdDeviation="1.16916" />
			<feComposite in2="hardAlpha" operator="arithmetic" k2="-1" k3="1" />
			<feColorMatrix type="matrix" values="0 0 0 0 1 0 0 0 0 1 0 0 0 0 1 0 0 0 0.5 0" />
			<feBlend mode="normal" in2="effect2_innerShadow_1185_15175"
				result="effect3_innerShadow_1185_15175" />
			<feColorMatrix in="SourceAlpha" type="matrix"
				values="0 0 0 0 0 0 0 0 0 0 0 0 0 0 0 0 0 0 127 0" result="hardAlpha" />
			<feOffset dx="0.187065" dy="0.187065" />
			<feGaussianBlur stdDeviation="0.350747" />
			<feComposite in2="hardAlpha" operator="arithmetic" k2="-1" k3="1" />
			<feColorMatrix type="matrix" values="0 0 0 0 1 0 0 0 0 1 0 0 0 0 1 0 0 0 0.7 0" />
			<feBlend mode="normal" in2="effect3_innerShadow_1185_15175"
				result="effect4_innerShadow_1185_15175" />
		</filter>
		<filter id="filter2_f_1185_15175" x="8.60554" y="9.06232" width="39.2757" height="39.2765"
			filterUnits="userSpaceOnUse" color-interpolation-filters="sRGB">
			<feFlood flood-opacity="0" result="BackgroundImageFix" />
			<feBlend mode="normal" in="SourceGraphic" in2="BackgroundImageFix" result="shape" />
			<feGaussianBlur stdDeviation="1.16916" result="effect1_foregroundBlur_1185_15175" />
		</filter>
		<filter id="filter3_iiii_1185_15175" x="3.66169" y="4.83084" width="38.1066" height="38.1073"
			filterUnits="userSpaceOnUse" color-interpolation-filters="sRGB">
			<feFlood flood-opacity="0" result="BackgroundImageFix" />
			<feBlend mode="normal" in="SourceGraphic" in2="BackgroundImageFix" result="shape" />
			<feColorMatrix in="SourceAlpha" type="matrix"
				values="0 0 0 0 0 0 0 0 0 0 0 0 0 0 0 0 0 0 127 0" result="hardAlpha" />
			<feOffset dx="-2.33831" dy="-1.16916" />
			<feGaussianBlur stdDeviation="1.16916" />
			<feComposite in2="hardAlpha" operator="arithmetic" k2="-1" k3="1" />
			<feColorMatrix type="matrix"
				values="0 0 0 0 0.521569 0 0 0 0 0.584314 0 0 0 0 0.603922 0 0 0 0.2 0" />
			<feBlend mode="normal" in2="shape" result="effect1_innerShadow_1185_15175" />
			<feColorMatrix in="SourceAlpha" type="matrix"
				values="0 0 0 0 0 0 0 0 0 0 0 0 0 0 0 0 0 0 127 0" result="hardAlpha" />
			<feOffset dx="-0.280597" dy="-0.140299" />
			<feGaussianBlur stdDeviation="0.350747" />
			<feComposite in2="hardAlpha" operator="arithmetic" k2="-1" k3="1" />
			<feColorMatrix type="matrix"
				values="0 0 0 0 0.521569 0 0 0 0 0.584314 0 0 0 0 0.603922 0 0 0 0.2 0" />
			<feBlend mode="normal" in2="effect1_innerShadow_1185_15175"
				result="effect2_innerShadow_1185_15175" />
			<feColorMatrix in="SourceAlpha" type="matrix"
				values="0 0 0 0 0 0 0 0 0 0 0 0 0 0 0 0 0 0 127 0" result="hardAlpha" />
			<feOffset dx="1.16916" dy="2.33831" />
			<feGaussianBlur stdDeviation="1.16916" />
			<feComposite in2="hardAlpha" operator="arithmetic" k2="-1" k3="1" />
			<feColorMatrix type="matrix" values="0 0 0 0 1 0 0 0 0 1 0 0 0 0 1 0 0 0 0.5 0" />
			<feBlend mode="normal" in2="effect2_innerShadow_1185_15175"
				result="effect3_innerShadow_1185_15175" />
			<feColorMatrix in="SourceAlpha" type="matrix"
				values="0 0 0 0 0 0 0 0 0 0 0 0 0 0 0 0 0 0 127 0" result="hardAlpha" />
			<feOffset dx="0.187065" dy="0.187065" />
			<feGaussianBlur stdDeviation="0.350747" />
			<feComposite in2="hardAlpha" operator="arithmetic" k2="-1" k3="1" />
			<feColorMatrix type="matrix" values="0 0 0 0 1 0 0 0 0 1 0 0 0 0 1 0 0 0 0.7 0" />
			<feBlend mode="normal" in2="effect3_innerShadow_1185_15175"
				result="effect4_innerShadow_1185_15175" />
		</filter>
		<filter id="filter4_f_1185_15175" x="4.76032" y="5.2176" width="39.2757" height="39.2765"
			filterUnits="userSpaceOnUse" color-interpolation-filters="sRGB">
			<feFlood flood-opacity="0" result="BackgroundImageFix" />
			<feBlend mode="normal" in="SourceGraphic" in2="BackgroundImageFix" result="shape" />
			<feGaussianBlur stdDeviation="1.16916" result="effect1_foregroundBlur_1185_15175" />
		</filter>
		<linearGradient id="paint0_linear_1185_15175" x1="10.1658" y1="13.9407" x2="33.5527"
			y2="34.3066" gradientUnits="userSpaceOnUse">
			<stop stop-color="white" />
			<stop offset="1" stop-color="white" stop-opacity="0" />
		</linearGradient>
		<linearGradient id="paint1_linear_1185_15175" x1="6.32061" y1="10.096" x2="29.7075"
			y2="30.4618" gradientUnits="userSpaceOnUse">
			<stop stop-color="white" />
			<stop offset="1" stop-color="white" stop-opacity="0" />
		</linearGradient>
	</defs>
</svg>
	