<svg width="55" height="55" viewBox="0 0 55 55" fill="none" xmlns="http://www.w3.org/2000/svg">
	<g opacity="0.6" filter="url(#filter0_f_1185_15203)">
		<g filter="url(#filter1_iiii_1185_15203)">
			<path fill-rule="evenodd" clip-rule="evenodd"
				d="M27.8187 46.0007C37.8603 46.0007 46.0007 37.8603 46.0007 27.8187C46.0007 17.7771 37.8603 9.63672 27.8187 9.63672C17.7771 9.63672 9.63672 17.7771 9.63672 27.8187C9.63672 37.8603 17.7771 46.0007 27.8187 46.0007ZM22.3647 24.8745C23.5601 24.8745 24.5292 23.9054 24.5292 22.7099C24.5292 21.5145 23.5601 20.5454 22.3647 20.5454C21.1693 20.5454 20.2002 21.5145 20.2002 22.7099C20.2002 23.9054 21.1693 24.8745 22.3647 24.8745ZM35.4384 22.7099C35.4384 23.9054 34.4693 24.8745 33.2739 24.8745C32.0785 24.8745 31.1094 23.9054 31.1094 22.7099C31.1094 21.5145 32.0785 20.5454 33.2739 20.5454C34.4693 20.5454 35.4384 21.5145 35.4384 22.7099ZM36.2437 32.1853C36.6473 31.5495 36.4592 30.7068 35.8234 30.3031C35.1876 29.8995 34.3449 30.0876 33.9412 30.7234C33.2834 31.7595 32.3795 32.6121 31.3128 33.2043C30.2462 33.7965 29.0502 34.1099 27.8338 34.1166C26.6173 34.1233 25.4181 33.8231 24.3451 33.2427C23.2721 32.6623 22.3591 31.8198 21.6901 30.791C21.2795 30.1597 20.4348 29.9807 19.8035 30.3913C19.1721 30.8018 18.9931 31.6465 19.4037 32.2779C20.32 33.6869 21.5724 34.8436 23.0475 35.6415C24.5227 36.4395 26.1733 36.8531 27.8488 36.8438C29.5242 36.8346 31.1702 36.4029 32.6366 35.5888C34.103 34.7746 35.3427 33.6043 36.2437 32.1853Z"
				fill="#BBCBD0" fill-opacity="0.5" />
		</g>
		<g filter="url(#filter2_f_1185_15203)">
			<path fill-rule="evenodd" clip-rule="evenodd"
				d="M27.8178 45.5247C37.3573 45.5247 45.0907 37.7914 45.0907 28.2519C45.0907 18.7123 37.3573 10.979 27.8178 10.979C18.2782 10.979 10.5449 18.7123 10.5449 28.2519C10.5449 37.7914 18.2782 45.5247 27.8178 45.5247ZM21.8228 24.572C22.9585 24.572 23.8791 23.6513 23.8791 22.5157C23.8791 21.38 22.9585 20.4594 21.8228 20.4594C20.6871 20.4594 19.7665 21.38 19.7665 22.5157C19.7665 23.6513 20.6871 24.572 21.8228 24.572ZM34.3566 22.6024C34.3566 23.738 33.436 24.6587 32.3003 24.6587C31.1647 24.6587 30.244 23.738 30.244 22.6024C30.244 21.4667 31.1647 20.5461 32.3003 20.5461C33.436 20.5461 34.3566 21.4667 34.3566 22.6024ZM34.8239 30.6279C35.2276 29.9922 35.0394 29.1495 34.4036 28.7458C33.7678 28.3421 32.9252 28.5303 32.5215 29.1661C31.9026 30.1408 31.0523 30.9428 30.0489 31.4999C29.0456 32.0569 27.9207 32.3517 26.7766 32.358C25.6324 32.3643 24.5044 32.0819 23.4952 31.536C22.4859 30.99 21.627 30.1975 20.9976 29.2297C20.587 28.5983 19.7423 28.4194 19.111 28.8299C18.4796 29.2405 18.3006 30.0852 18.7112 30.7165C19.5879 32.0646 20.7861 33.1713 22.1976 33.9348C23.6091 34.6983 25.1884 35.0941 26.7916 35.0852C28.3947 35.0764 29.9697 34.6633 31.3728 33.8843C32.7758 33.1054 33.9619 31.9856 34.8239 30.6279Z"
				fill="url(#paint0_linear_1185_15203)" fill-opacity="0.9" />
		</g>
	</g>
	<g filter="url(#filter3_iiii_1185_15203)">
		<path fill-rule="evenodd" clip-rule="evenodd"
			d="M24.182 42.3639C34.2236 42.3639 42.3639 34.2236 42.3639 24.182C42.3639 14.1403 34.2236 6 24.182 6C14.1403 6 6 14.1403 6 24.182C6 34.2236 14.1403 42.3639 24.182 42.3639ZM18.727 21.2391C19.9225 21.2391 20.8915 20.27 20.8915 19.0746C20.8915 17.8791 19.9225 16.91 18.727 16.91C17.5316 16.91 16.5625 17.8791 16.5625 19.0746C16.5625 20.27 17.5316 21.2391 18.727 21.2391ZM31.8007 19.0746C31.8007 20.27 30.8316 21.2391 29.6362 21.2391C28.4408 21.2391 27.4717 20.27 27.4717 19.0746C27.4717 17.8791 28.4408 16.91 29.6362 16.91C30.8316 16.91 31.8007 17.8791 31.8007 19.0746ZM32.606 28.5499C33.0096 27.9141 32.8215 27.0714 32.1857 26.6678C31.5499 26.2641 30.7072 26.4522 30.3035 27.088C29.6457 28.1242 28.7418 28.9767 27.6751 29.5689C26.6085 30.1611 25.4125 30.4745 24.1961 30.4812C22.9796 30.4879 21.7804 30.1877 20.7074 29.6073C19.6344 29.0269 18.7214 28.1844 18.0524 27.1556C17.6418 26.5243 16.7971 26.3453 16.1658 26.7559C15.5344 27.1665 15.3554 28.0111 15.766 28.6425C16.6823 30.0515 17.9347 31.2082 19.4098 32.0062C20.885 32.8041 22.5356 33.2177 24.2111 33.2085C25.8865 33.1992 27.5325 32.7675 28.9989 31.9534C30.4653 31.1393 31.705 29.9689 32.606 28.5499Z"
			fill="#EFF3F6" />
	</g>
	<g filter="url(#filter4_f_1185_15203)">
		<path fill-rule="evenodd" clip-rule="evenodd"
			d="M24.1811 41.8878C33.7206 41.8878 41.4539 34.1545 41.4539 24.6149C41.4539 15.0754 33.7206 7.34204 24.1811 7.34204C14.6415 7.34204 6.9082 15.0754 6.9082 24.6149C6.9082 34.1545 14.6415 41.8878 24.1811 41.8878ZM18.1842 20.9356C19.3199 20.9356 20.2405 20.015 20.2405 18.8793C20.2405 17.7436 19.3199 16.823 18.1842 16.823C17.0486 16.823 16.1279 17.7436 16.1279 18.8793C16.1279 20.015 17.0486 20.9356 18.1842 20.9356ZM30.7171 18.9658C30.7171 20.1015 29.7964 21.0221 28.6608 21.0221C27.5251 21.0221 26.6045 20.1015 26.6045 18.9658C26.6045 17.8302 27.5251 16.9095 28.6608 16.9095C29.7964 16.9095 30.7171 17.8302 30.7171 18.9658ZM31.1843 26.9914C31.588 26.3556 31.3999 25.513 30.7641 25.1093C30.1283 24.7056 29.2856 24.8938 28.8819 25.5296C28.263 26.5043 27.4127 27.3063 26.4094 27.8634C25.4061 28.4204 24.2811 28.7152 23.137 28.7215C21.9929 28.7278 20.8649 28.4454 19.8556 27.8995C18.8463 27.3535 17.9874 26.561 17.358 25.5932C16.9474 24.9618 16.1028 24.7828 15.4714 25.1934C14.8401 25.604 14.6611 26.4487 15.0717 27.08C15.9483 28.4281 17.1466 29.5348 18.558 30.2983C19.9695 31.0618 21.5489 31.4575 23.152 31.4487C24.7552 31.4399 26.3301 31.0268 27.7332 30.2478C29.1362 29.4688 30.3224 28.349 31.1843 26.9914Z"
			fill="url(#paint1_linear_1185_15203)" fill-opacity="0.9" />
	</g>
	<defs>
		<filter id="filter0_f_1185_15203" x="0.978639" y="0.978639" width="53.6799" height="53.6802"
			filterUnits="userSpaceOnUse" color-interpolation-filters="sRGB">
			<feFlood flood-opacity="0" result="BackgroundImageFix" />
			<feBlend mode="normal" in="SourceGraphic" in2="BackgroundImageFix" result="shape" />
			<feGaussianBlur stdDeviation="4.32904" result="effect1_foregroundBlur_1185_15203" />
		</filter>
		<filter id="filter1_iiii_1185_15203" x="7.4722" y="8.55446" width="39.6105" height="38.442"
			filterUnits="userSpaceOnUse" color-interpolation-filters="sRGB">
			<feFlood flood-opacity="0" result="BackgroundImageFix" />
			<feBlend mode="normal" in="SourceGraphic" in2="BackgroundImageFix" result="shape" />
			<feColorMatrix in="SourceAlpha" type="matrix"
				values="0 0 0 0 0 0 0 0 0 0 0 0 0 0 0 0 0 0 127 0" result="hardAlpha" />
			<feOffset dx="-2.16452" dy="-1.08226" />
			<feGaussianBlur stdDeviation="1.08226" />
			<feComposite in2="hardAlpha" operator="arithmetic" k2="-1" k3="1" />
			<feColorMatrix type="matrix" values="0 0 0 0 0 0 0 0 0 0 0 0 0 0 0 0 0 0 0.3 0" />
			<feBlend mode="normal" in2="shape" result="effect1_innerShadow_1185_15203" />
			<feColorMatrix in="SourceAlpha" type="matrix"
				values="0 0 0 0 0 0 0 0 0 0 0 0 0 0 0 0 0 0 127 0" result="hardAlpha" />
			<feOffset dx="-0.259742" dy="-0.129871" />
			<feGaussianBlur stdDeviation="0.324678" />
			<feComposite in2="hardAlpha" operator="arithmetic" k2="-1" k3="1" />
			<feColorMatrix type="matrix" values="0 0 0 0 0 0 0 0 0 0 0 0 0 0 0 0 0 0 0.35 0" />
			<feBlend mode="normal" in2="effect1_innerShadow_1185_15203"
				result="effect2_innerShadow_1185_15203" />
			<feColorMatrix in="SourceAlpha" type="matrix"
				values="0 0 0 0 0 0 0 0 0 0 0 0 0 0 0 0 0 0 127 0" result="hardAlpha" />
			<feOffset dx="1.08226" dy="0.995679" />
			<feGaussianBlur stdDeviation="1.08226" />
			<feComposite in2="hardAlpha" operator="arithmetic" k2="-1" k3="1" />
			<feColorMatrix type="matrix" values="0 0 0 0 1 0 0 0 0 1 0 0 0 0 1 0 0 0 0.5 0" />
			<feBlend mode="normal" in2="effect2_innerShadow_1185_15203"
				result="effect3_innerShadow_1185_15203" />
			<feColorMatrix in="SourceAlpha" type="matrix"
				values="0 0 0 0 0 0 0 0 0 0 0 0 0 0 0 0 0 0 127 0" result="hardAlpha" />
			<feOffset dx="0.173162" dy="0.173162" />
			<feGaussianBlur stdDeviation="0.324678" />
			<feComposite in2="hardAlpha" operator="arithmetic" k2="-1" k3="1" />
			<feColorMatrix type="matrix" values="0 0 0 0 1 0 0 0 0 1 0 0 0 0 1 0 0 0 0.7 0" />
			<feBlend mode="normal" in2="effect3_innerShadow_1185_15203"
				result="effect4_innerShadow_1185_15203" />
		</filter>
		<filter id="filter2_f_1185_15203" x="8.3804" y="8.81448" width="38.8749" height="38.8747"
			filterUnits="userSpaceOnUse" color-interpolation-filters="sRGB">
			<feFlood flood-opacity="0" result="BackgroundImageFix" />
			<feBlend mode="normal" in="SourceGraphic" in2="BackgroundImageFix" result="shape" />
			<feGaussianBlur stdDeviation="1.08226" result="effect1_foregroundBlur_1185_15203" />
		</filter>
		<filter id="filter3_iiii_1185_15203" x="3.83548" y="4.91774" width="39.6105" height="38.442"
			filterUnits="userSpaceOnUse" color-interpolation-filters="sRGB">
			<feFlood flood-opacity="0" result="BackgroundImageFix" />
			<feBlend mode="normal" in="SourceGraphic" in2="BackgroundImageFix" result="shape" />
			<feColorMatrix in="SourceAlpha" type="matrix"
				values="0 0 0 0 0 0 0 0 0 0 0 0 0 0 0 0 0 0 127 0" result="hardAlpha" />
			<feOffset dx="-2.16452" dy="-1.08226" />
			<feGaussianBlur stdDeviation="1.08226" />
			<feComposite in2="hardAlpha" operator="arithmetic" k2="-1" k3="1" />
			<feColorMatrix type="matrix"
				values="0 0 0 0 0.521569 0 0 0 0 0.584314 0 0 0 0 0.603922 0 0 0 0.2 0" />
			<feBlend mode="normal" in2="shape" result="effect1_innerShadow_1185_15203" />
			<feColorMatrix in="SourceAlpha" type="matrix"
				values="0 0 0 0 0 0 0 0 0 0 0 0 0 0 0 0 0 0 127 0" result="hardAlpha" />
			<feOffset dx="-0.259742" dy="-0.129871" />
			<feGaussianBlur stdDeviation="0.324678" />
			<feComposite in2="hardAlpha" operator="arithmetic" k2="-1" k3="1" />
			<feColorMatrix type="matrix"
				values="0 0 0 0 0.521569 0 0 0 0 0.584314 0 0 0 0 0.603922 0 0 0 0.2 0" />
			<feBlend mode="normal" in2="effect1_innerShadow_1185_15203"
				result="effect2_innerShadow_1185_15203" />
			<feColorMatrix in="SourceAlpha" type="matrix"
				values="0 0 0 0 0 0 0 0 0 0 0 0 0 0 0 0 0 0 127 0" result="hardAlpha" />
			<feOffset dx="1.08226" dy="0.995679" />
			<feGaussianBlur stdDeviation="1.08226" />
			<feComposite in2="hardAlpha" operator="arithmetic" k2="-1" k3="1" />
			<feColorMatrix type="matrix" values="0 0 0 0 1 0 0 0 0 1 0 0 0 0 1 0 0 0 0.5 0" />
			<feBlend mode="normal" in2="effect2_innerShadow_1185_15203"
				result="effect3_innerShadow_1185_15203" />
			<feColorMatrix in="SourceAlpha" type="matrix"
				values="0 0 0 0 0 0 0 0 0 0 0 0 0 0 0 0 0 0 127 0" result="hardAlpha" />
			<feOffset dx="0.173162" dy="0.173162" />
			<feGaussianBlur stdDeviation="0.324678" />
			<feComposite in2="hardAlpha" operator="arithmetic" k2="-1" k3="1" />
			<feColorMatrix type="matrix" values="0 0 0 0 1 0 0 0 0 1 0 0 0 0 1 0 0 0 0.7 0" />
			<feBlend mode="normal" in2="effect3_innerShadow_1185_15203"
				result="effect4_innerShadow_1185_15203" />
		</filter>
		<filter id="filter4_f_1185_15203" x="4.74368" y="5.17752" width="38.8749" height="38.8747"
			filterUnits="userSpaceOnUse" color-interpolation-filters="sRGB">
			<feFlood flood-opacity="0" result="BackgroundImageFix" />
			<feBlend mode="normal" in="SourceGraphic" in2="BackgroundImageFix" result="shape" />
			<feGaussianBlur stdDeviation="1.08226" result="effect1_foregroundBlur_1185_15203" />
		</filter>
		<linearGradient id="paint0_linear_1185_15203" x1="14.7008" y1="13.3167" x2="27.8178"
			y2="28.8146" gradientUnits="userSpaceOnUse">
			<stop stop-color="white" />
			<stop offset="1" stop-color="white" stop-opacity="0" />
		</linearGradient>
		<linearGradient id="paint1_linear_1185_15203" x1="11.0641" y1="9.67972" x2="24.1811"
			y2="25.1777" gradientUnits="userSpaceOnUse">
			<stop stop-color="white" />
			<stop offset="1" stop-color="white" stop-opacity="0" />
		</linearGradient>
	</defs>
</svg>
	