<svg width="24" height="24" viewBox="0 0 24 24" fill="none" xmlns="http://www.w3.org/2000/svg">
<path d="M13.0574 3.84365L13.0581 3.84506L14.8169 7.36266C15.0044 7.7437 15.3176 8.06941 15.6411 8.30815C15.966 8.54787 16.3693 8.75005 16.7856 8.81944L16.786 8.81951L19.9756 9.34944C19.9758 9.34946 19.9759 9.34949 19.976 9.34951C20.8664 9.49798 21.1586 9.84889 21.2262 10.0592C21.2932 10.2678 21.2616 10.7207 20.6204 11.3575L20.6186 11.3593L18.1386 13.8393C17.8162 14.1617 17.6006 14.5928 17.4816 15.0082C17.3626 15.424 17.3181 15.9021 17.4171 16.3437L17.4171 16.3437L17.4182 16.3486L18.1281 19.4181C18.3935 20.5698 18.1261 20.9844 17.9934 21.0811C17.8594 21.1788 17.3801 21.3061 16.361 20.7043C16.3608 20.7041 16.3606 20.704 16.3604 20.7039L13.3713 18.9344C13.3712 18.9344 13.3711 18.9343 13.371 18.9343C12.9571 18.6891 12.4588 18.5896 12.0027 18.5896C11.5458 18.5896 11.0477 18.6894 10.6318 18.9314L10.6318 18.9314L10.6269 18.9343L7.63688 20.7043L7.63617 20.7047C6.62529 21.3046 6.14492 21.1771 6.00851 21.0775C5.87268 20.9784 5.6052 20.5614 5.86962 19.4187L5.86965 19.4186L6.57965 16.3486L6.57966 16.3486L6.58077 16.3437C6.67974 15.9021 6.63524 15.424 6.51622 15.0082C6.3973 14.5928 6.18166 14.1617 5.85926 13.8393L3.37926 11.3593C2.74227 10.7223 2.70871 10.2682 2.77589 10.0578C2.84284 9.84815 3.13226 9.49786 4.02186 9.34951C4.02198 9.34949 4.02211 9.34946 4.02223 9.34944L7.21186 8.81951L7.21186 8.81951L7.21449 8.81906C7.6266 8.74908 8.0271 8.54607 8.34938 8.30711C8.67074 8.06884 8.98363 7.74343 9.17098 7.3626L10.9291 3.84646C10.9291 3.84627 10.9292 3.84608 10.9293 3.84589C11.355 2.99922 11.7851 2.82715 11.9977 2.82715C12.209 2.82715 12.6366 2.99763 13.0574 3.84365Z" fill="none" stroke="#E33046" stroke-width="1.5" stroke-linecap="round" stroke-linejoin="round"/>
</svg>
